<?xml version="1.0" encoding="utf-8"?>
<!-- Generator: Adobe Illustrator 16.0.0, SVG Export Plug-In . SVG Version: 6.00 Build 0)  -->
<!DOCTYPE svg PUBLIC "-//W3C//DTD SVG 1.1//EN" "http://www.w3.org/Graphics/SVG/1.1/DTD/svg11.dtd">
<svg version="1.1" id="Layer_1" xmlns="http://www.w3.org/2000/svg" xmlns:xlink="http://www.w3.org/1999/xlink" x="0px" y="0px"
	 width="94.012px" height="62.69px" viewBox="0 0 94.012 62.69" enable-background="new 0 0 94.012 62.69" xml:space="preserve">
<g>
	<g>
		<g>
			<g>
				<path d="M67.302,26.321c0.322,0.535,0.691,1.02,1.085,1.48c-0.788-1.369-1.366-2.884-1.725-4.558
					c-0.378-1.768-0.566-3.539-0.566-5.313c0-1.606,0.157-3.254,0.474-4.944c0.316-1.69,0.877-3.222,1.68-4.597
					c0.802-1.374,1.887-2.504,3.253-3.392c1.366-0.888,3.093-1.331,5.177-1.331c2.685,0,4.911,0.671,6.679,2.015
					c0.44,0.334,0.851,0.716,1.23,1.144c-0.671-1.172-1.481-2.131-2.442-2.86c-1.768-1.343-3.993-2.015-6.68-2.015
					c-2.084,0-3.809,0.444-5.176,1.332c-1.366,0.888-2.451,2.018-3.252,3.392c-0.804,1.374-1.364,2.906-1.681,4.597
					c-0.315,1.69-0.474,3.338-0.474,4.943c0,1.775,0.189,3.547,0.566,5.314C65.829,23.296,66.446,24.894,67.302,26.321z"/>
				<path d="M89.112,30.573c-0.078-1.126-0.116-2.223-0.116-3.288c0-0.633,0.015-1.258,0.047-1.876
					c0.031-0.617,0.093-1.242,0.186-1.875c0.046-0.125-0.013-0.251-0.175-0.383c-0.162-0.131-0.34-0.22-0.533-0.266
					c-0.192-0.046-0.373-0.038-0.543,0.023c-0.04,0.014-0.062,0.049-0.094,0.072c-0.021,0.238-0.042,0.477-0.053,0.713
					c-0.033,0.617-0.047,1.243-0.047,1.875c0,1.064,0.038,2.162,0.117,3.288c0.076,1.127,0.152,2.309,0.23,3.543
					c0,0.185-0.066,0.324-0.197,0.417c-0.131,0.092-0.281,0.146-0.451,0.161c-0.1,0.009-0.196-0.003-0.291-0.024
					c0.15,0.139,0.287,0.291,0.392,0.468c0.152,0.263,0.263,0.54,0.324,0.833c0.03,0.154,0.126,0.27,0.289,0.348
					c0.161,0.077,0.327,0.107,0.498,0.093c0.171-0.016,0.32-0.069,0.45-0.162c0.132-0.093,0.198-0.231,0.198-0.417
					C89.265,32.881,89.189,31.7,89.112,30.573z"/>
				<path d="M87.19,3.226c-0.011,0.04-0.027,0.067-0.039,0.104c-0.037,0.479-0.061,0.965-0.061,1.468
					c0,0.879,0.061,1.763,0.184,2.65c0.125,0.889,0.246,1.803,0.371,2.744c0,0.124-0.069,0.228-0.208,0.313
					c-0.14,0.085-0.313,0.136-0.521,0.15c-0.052,0.004-0.099-0.002-0.147-0.002c0.152,0.417,0.296,0.846,0.422,1.302
					c0.031,0.17,0.142,0.286,0.335,0.347s0.394,0.085,0.603,0.07s0.382-0.066,0.521-0.151c0.139-0.084,0.208-0.189,0.208-0.313
					c-0.125-0.941-0.246-1.855-0.37-2.743c-0.125-0.888-0.186-1.771-0.186-2.651c0-0.571,0.023-1.127,0.069-1.667
					c0.046-0.541,0.13-1.058,0.255-1.552c0.031-0.139-0.015-0.24-0.139-0.301c-0.125-0.062-0.274-0.1-0.453-0.115
					c-0.177-0.016-0.354,0.007-0.531,0.069C87.325,3.01,87.222,3.103,87.19,3.226z"/>
				<path d="M86.696,32.539c-0.063-0.293-0.171-0.571-0.323-0.833c-0.155-0.263-0.361-0.482-0.615-0.66
					c-0.255-0.177-0.548-0.266-0.88-0.266c-0.29,0-0.619,0.098-0.975,0.263c-0.807,0.695-1.793,1.173-2.965,1.429
					c-0.25,0.055-0.51,0.1-0.773,0.144c-0.131,0.036-0.261,0.079-0.393,0.109c-0.664,0.153-1.357,0.263-2.084,0.323
					c-0.727,0.063-1.514,0.094-2.361,0.094c-5.604,0-9.758-1.397-12.458-4.192c-0.222-0.229-0.419-0.479-0.623-0.724
					c0.522,0.894,1.13,1.71,1.835,2.44c2.7,2.794,6.854,4.192,12.458,4.192c0.848,0,1.634-0.033,2.362-0.094
					c0.725-0.062,1.419-0.17,2.083-0.324c0.663-0.154,1.32-0.367,1.969-0.637s1.319-0.598,2.015-0.984
					c0.417-0.215,0.79-0.324,1.123-0.324c0.242,0,0.457,0.064,0.658,0.16C86.731,32.618,86.705,32.583,86.696,32.539z"/>
			</g>
			<g>
				<g>
					<path fill="#1F4884" d="M75.771,0c1.42,0,2.732,0.173,3.937,0.521c1.204,0.348,2.392,0.807,3.565,1.378
						c0.338,0.155,0.66,0.301,0.959,0.44c0.303,0.139,0.561,0.208,0.777,0.208c0.51,0,0.842-0.301,0.996-0.902
						c0.03-0.124,0.135-0.216,0.313-0.279c0.177-0.061,0.354-0.084,0.531-0.069c0.178,0.015,0.329,0.055,0.453,0.116
						c0.123,0.063,0.17,0.163,0.139,0.301c-0.124,0.495-0.209,1.011-0.254,1.552c-0.047,0.541-0.07,1.096-0.07,1.667
						c0,0.88,0.062,1.764,0.186,2.651c0.123,0.889,0.246,1.803,0.371,2.744c0,0.125-0.07,0.228-0.209,0.313
						c-0.139,0.084-0.313,0.135-0.521,0.15c-0.209,0.016-0.41-0.008-0.603-0.07c-0.192-0.061-0.305-0.177-0.335-0.347
						c-0.787-2.84-2.065-4.933-3.833-6.275c-1.767-1.343-3.993-2.015-6.681-2.015c-2.083,0-3.809,0.445-5.175,1.332
						c-1.366,0.888-2.451,2.019-3.253,3.393c-0.803,1.374-1.363,2.906-1.68,4.596c-0.316,1.69-0.474,3.338-0.474,4.943
						c0,1.775,0.188,3.547,0.566,5.314c0.379,1.768,0.996,3.365,1.853,4.793c0.857,1.428,1.973,2.59,3.348,3.485
						c1.373,0.896,3.041,1.343,5.002,1.343c1.512,0,2.87-0.131,4.074-0.394c1.203-0.263,2.214-0.756,3.033-1.481
						c1.02-0.926,1.83-2.03,2.432-3.311c0.602-1.282,1.027-2.725,1.273-4.331c0.031-0.231,0.13-0.378,0.301-0.44
						c0.17-0.062,0.351-0.069,0.544-0.023c0.192,0.046,0.37,0.135,0.532,0.266s0.221,0.258,0.175,0.382
						c-0.093,0.633-0.155,1.258-0.186,1.875c-0.031,0.618-0.046,1.243-0.046,1.876c0,1.065,0.037,2.162,0.115,3.288
						c0.077,1.126,0.153,2.308,0.231,3.543c0,0.186-0.066,0.324-0.197,0.416c-0.132,0.094-0.281,0.146-0.451,0.162
						c-0.171,0.016-0.336-0.016-0.499-0.092c-0.162-0.078-0.257-0.193-0.288-0.348c-0.062-0.293-0.17-0.57-0.325-0.833
						c-0.152-0.263-0.358-0.482-0.613-0.66s-0.548-0.267-0.88-0.267c-0.331,0-0.706,0.108-1.122,0.324
						c-0.695,0.386-1.367,0.715-2.015,0.984c-0.649,0.27-1.306,0.482-1.968,0.637c-0.664,0.153-1.359,0.262-2.084,0.324
						c-0.727,0.061-1.515,0.092-2.363,0.092c-5.604,0-9.756-1.396-12.457-4.191c-2.701-2.793-4.053-6.8-4.053-12.017
						c0-2.779,0.429-5.237,1.286-7.375c0.856-2.138,2.032-3.925,3.53-5.361s3.28-2.516,5.35-3.242C71.077,0.363,73.331,0,75.771,0z"
						/>
				</g>
			</g>
		</g>
		<g>
			<path d="M64.378,38.655c0,0.168,0.035,0.309,0.104,0.422c0.07,0.113,0.159,0.209,0.268,0.288c0.109,0.079,0.229,0.147,0.36,0.206
				s0.257,0.115,0.38,0.17c0.212,0.101,0.424,0.207,0.633,0.318c0.21,0.111,0.398,0.241,0.564,0.391
				c0.166,0.148,0.301,0.324,0.403,0.527c0.104,0.202,0.155,0.449,0.155,0.74c0,0.289-0.061,0.532-0.18,0.731
				c-0.119,0.198-0.275,0.36-0.467,0.485c-0.192,0.126-0.408,0.217-0.648,0.272c-0.239,0.056-0.479,0.084-0.719,0.084
				c-0.157,0-0.334-0.024-0.529-0.071c-0.194-0.048-0.372-0.119-0.533-0.215c-0.029-0.012-0.057-0.021-0.08-0.033
				c-0.025-0.011-0.057-0.016-0.094-0.016c-0.042,0-0.085,0.016-0.131,0.049c-0.044,0.033-0.082,0.092-0.115,0.176
				c-0.016,0.033-0.039,0.055-0.067,0.067s-0.058,0.017-0.088,0.013s-0.055-0.015-0.073-0.031c-0.02-0.016-0.029-0.035-0.029-0.057
				c0.017-0.123,0.031-0.256,0.045-0.398s0.021-0.287,0.021-0.432c0-0.144-0.004-0.289-0.013-0.433
				c-0.009-0.145-0.023-0.296-0.045-0.453c-0.006-0.033,0.005-0.062,0.032-0.084c0.027-0.023,0.059-0.036,0.093-0.039
				c0.033-0.003,0.065,0.003,0.095,0.019c0.031,0.015,0.049,0.039,0.054,0.071c0.036,0.229,0.098,0.437,0.186,0.622
				c0.089,0.188,0.2,0.347,0.333,0.477c0.134,0.131,0.285,0.233,0.455,0.307c0.171,0.074,0.357,0.11,0.559,0.11
				c0.149,0,0.293-0.021,0.432-0.063c0.137-0.043,0.258-0.104,0.365-0.184c0.105-0.08,0.189-0.18,0.25-0.296
				c0.062-0.117,0.093-0.255,0.093-0.413c0-0.201-0.044-0.377-0.132-0.526c-0.087-0.15-0.193-0.279-0.321-0.388
				c-0.128-0.109-0.271-0.204-0.428-0.284c-0.156-0.081-0.304-0.155-0.442-0.224c-0.186-0.084-0.371-0.17-0.555-0.26
				c-0.184-0.088-0.347-0.194-0.492-0.32c-0.145-0.125-0.262-0.275-0.351-0.451c-0.091-0.175-0.135-0.395-0.135-0.66
				s0.054-0.49,0.163-0.671c0.108-0.181,0.253-0.327,0.432-0.439c0.178-0.112,0.381-0.192,0.609-0.243
				c0.229-0.05,0.467-0.074,0.712-0.074c0.157,0,0.29,0.009,0.397,0.027c0.107,0.02,0.23,0.053,0.365,0.098
				c0.071,0.022,0.131,0.041,0.179,0.055c0.048,0.013,0.093,0.02,0.137,0.02c0.067,0,0.116-0.027,0.144-0.082
				c0.01-0.021,0.031-0.037,0.063-0.047s0.061-0.012,0.088-0.008s0.053,0.012,0.076,0.022c0.022,0.011,0.031,0.026,0.026,0.049
				c-0.03,0.101-0.05,0.201-0.058,0.3c-0.008,0.1-0.012,0.205-0.012,0.316c0,0.147,0.008,0.279,0.025,0.396
				c0.019,0.117,0.033,0.256,0.044,0.417c0,0.017-0.013,0.032-0.035,0.045c-0.023,0.014-0.05,0.022-0.079,0.026
				c-0.03,0.004-0.06,0-0.088-0.012c-0.029-0.013-0.046-0.033-0.051-0.06c-0.055-0.245-0.116-0.447-0.182-0.606
				c-0.067-0.159-0.152-0.283-0.252-0.371c-0.102-0.09-0.223-0.15-0.365-0.186c-0.143-0.033-0.314-0.05-0.514-0.05
				c-0.141,0-0.274,0.019-0.399,0.055c-0.126,0.037-0.235,0.091-0.329,0.163s-0.168,0.163-0.225,0.271
				C64.406,38.391,64.378,38.515,64.378,38.655z"/>
			<path d="M68.835,41.04c-0.027,0-0.043,0.01-0.045,0.029c-0.004,0.018-0.005,0.041-0.005,0.068c0,0.291,0.035,0.537,0.104,0.738
				c0.069,0.199,0.164,0.361,0.286,0.488c0.121,0.125,0.263,0.215,0.425,0.271s0.336,0.084,0.525,0.084
				c0.188,0,0.369-0.018,0.547-0.054c0.177-0.035,0.339-0.105,0.486-0.212c0.043-0.04,0.089-0.03,0.139,0.033
				c0.051,0.06,0.059,0.11,0.02,0.15c-0.182,0.229-0.383,0.39-0.604,0.482c-0.221,0.09-0.496,0.136-0.826,0.136
				c-0.334,0-0.625-0.051-0.873-0.152c-0.248-0.101-0.455-0.24-0.619-0.418s-0.288-0.391-0.367-0.634
				c-0.081-0.243-0.121-0.508-0.121-0.794c0-0.277,0.046-0.538,0.139-0.781c0.093-0.242,0.222-0.453,0.386-0.632
				c0.165-0.181,0.363-0.323,0.595-0.427c0.231-0.105,0.486-0.158,0.764-0.158c0.234,0,0.447,0.041,0.637,0.121
				c0.191,0.08,0.354,0.191,0.491,0.334c0.136,0.145,0.241,0.313,0.315,0.51c0.075,0.195,0.113,0.41,0.113,0.641
				c0,0.117-0.043,0.176-0.127,0.176H68.835z M70.366,40.746c0.041,0,0.072-0.007,0.092-0.022c0.021-0.016,0.035-0.035,0.043-0.063
				c0.008-0.025,0.013-0.055,0.014-0.088c0.002-0.035,0.004-0.072,0.004-0.113c0-0.117-0.02-0.229-0.057-0.337
				c-0.036-0.107-0.088-0.204-0.154-0.288c-0.067-0.084-0.148-0.152-0.246-0.202c-0.096-0.05-0.204-0.075-0.324-0.075
				c-0.152,0-0.283,0.026-0.391,0.079c-0.107,0.054-0.197,0.124-0.271,0.213c-0.074,0.089-0.132,0.19-0.171,0.306
				c-0.042,0.116-0.07,0.238-0.087,0.365c-0.011,0.066-0.016,0.119-0.013,0.162s0.016,0.063,0.037,0.063H70.366z"/>
			<path d="M73.254,42.16c0,0.28,0.046,0.478,0.135,0.592c0.091,0.114,0.239,0.188,0.45,0.22c0.035,0.006,0.06,0.021,0.072,0.047
				c0.014,0.023,0.021,0.051,0.021,0.082s-0.009,0.059-0.025,0.084c-0.016,0.024-0.039,0.037-0.068,0.037
				c-0.027,0-0.076-0.003-0.146-0.008c-0.069-0.006-0.15-0.013-0.243-0.021c-0.092-0.008-0.188-0.016-0.289-0.023
				c-0.1-0.01-0.191-0.013-0.276-0.013c-0.181,0-0.352,0.009-0.513,0.028c-0.16,0.02-0.314,0.029-0.462,0.029
				c-0.027,0-0.048-0.013-0.062-0.037c-0.014-0.025-0.02-0.051-0.02-0.08s0.006-0.057,0.02-0.084s0.037-0.043,0.069-0.049
				c0.136-0.021,0.242-0.047,0.317-0.076c0.074-0.027,0.129-0.068,0.164-0.122c0.033-0.054,0.053-0.124,0.059-0.212
				c0.006-0.089,0.008-0.203,0.008-0.346v-1.054c0-0.277-0.001-0.507-0.004-0.688c-0.002-0.182-0.023-0.324-0.059-0.43
				c-0.037-0.107-0.094-0.183-0.172-0.228c-0.078-0.046-0.193-0.07-0.346-0.076c-0.033,0-0.056-0.013-0.069-0.04
				s-0.021-0.056-0.021-0.084c0-0.029,0.005-0.057,0.017-0.084c0.011-0.027,0.026-0.041,0.049-0.041
				c0.319-0.021,0.587-0.055,0.807-0.1c0.218-0.045,0.357-0.068,0.418-0.068c0.063,0,0.106,0.018,0.132,0.05
				c0.023,0.033,0.036,0.075,0.036,0.127c0,0.011-0.003,0.038-0.013,0.083c-0.007,0.045-0.017,0.097-0.027,0.155
				c-0.012,0.06-0.021,0.115-0.029,0.169c-0.008,0.053-0.012,0.092-0.012,0.119c0,0.012,0.004,0.018,0.012,0.018
				s0.016-0.006,0.021-0.018c0.037-0.068,0.096-0.145,0.174-0.23s0.174-0.168,0.284-0.247s0.238-0.146,0.384-0.2
				c0.145-0.055,0.301-0.082,0.467-0.082c0.396,0,0.707,0.115,0.93,0.348c0.223,0.231,0.334,0.605,0.334,1.123v1.43
				c0,0.15,0.006,0.271,0.016,0.367c0.012,0.096,0.035,0.173,0.07,0.23c0.035,0.06,0.088,0.104,0.155,0.136s0.161,0.055,0.278,0.071
				c0.027,0.006,0.047,0.021,0.061,0.045s0.021,0.053,0.021,0.084s-0.008,0.059-0.021,0.084c-0.014,0.024-0.033,0.037-0.061,0.037
				c-0.074,0-0.199-0.01-0.375-0.029c-0.175-0.02-0.346-0.028-0.512-0.028c-0.18,0-0.344,0.009-0.492,0.028
				s-0.274,0.029-0.378,0.029c-0.03,0-0.052-0.013-0.065-0.037c-0.014-0.025-0.021-0.051-0.024-0.08s0.001-0.057,0.012-0.084
				c0.011-0.026,0.033-0.043,0.065-0.049c0.112-0.021,0.199-0.049,0.26-0.084c0.062-0.033,0.107-0.078,0.139-0.135
				c0.031-0.055,0.051-0.125,0.056-0.211s0.009-0.193,0.009-0.324v-1.27c0-0.139-0.005-0.277-0.014-0.416
				c-0.008-0.139-0.035-0.264-0.083-0.375s-0.116-0.204-0.208-0.277c-0.09-0.074-0.221-0.111-0.389-0.111
				c-0.334,0-0.592,0.108-0.773,0.324c-0.18,0.214-0.271,0.521-0.271,0.926V42.16z"/>
			<path d="M78.177,42.159c0,0.139,0.004,0.256,0.01,0.352c0.008,0.095,0.027,0.174,0.06,0.234s0.083,0.109,0.153,0.143
				c0.068,0.035,0.168,0.06,0.296,0.076c0.03,0.006,0.052,0.02,0.067,0.043c0.015,0.023,0.023,0.05,0.023,0.08
				c0,0.029-0.009,0.059-0.023,0.086c-0.016,0.027-0.037,0.041-0.067,0.041c-0.049,0-0.108-0.004-0.176-0.008
				c-0.068-0.006-0.142-0.014-0.219-0.021s-0.159-0.015-0.243-0.02c-0.086-0.006-0.169-0.009-0.25-0.009
				c-0.182,0-0.356,0.009-0.525,0.028s-0.333,0.029-0.49,0.029c-0.027,0-0.047-0.013-0.062-0.037
				c-0.014-0.025-0.021-0.052-0.021-0.082c0-0.029,0.007-0.059,0.022-0.084c0.015-0.025,0.037-0.041,0.067-0.047
				c0.147-0.017,0.262-0.041,0.341-0.074c0.081-0.031,0.14-0.078,0.177-0.139c0.036-0.059,0.057-0.133,0.063-0.221
				c0.006-0.086,0.008-0.193,0.008-0.322v-1.344c0-0.245-0.006-0.438-0.016-0.58c-0.012-0.141-0.037-0.25-0.078-0.326
				c-0.04-0.076-0.1-0.129-0.177-0.158c-0.079-0.027-0.184-0.051-0.317-0.067c-0.023,0-0.043-0.013-0.055-0.038
				c-0.013-0.026-0.02-0.055-0.02-0.084c0-0.03,0.007-0.059,0.02-0.086c0.012-0.027,0.031-0.041,0.055-0.041
				c0.123-0.008,0.251-0.021,0.384-0.039c0.134-0.018,0.259-0.036,0.374-0.057c0.117-0.021,0.217-0.037,0.3-0.051
				c0.084-0.014,0.137-0.021,0.159-0.021c0.068,0,0.111,0.021,0.131,0.061c0.02,0.039,0.029,0.074,0.029,0.107V42.159z
				 M77.735,38.454c-0.139,0-0.26-0.043-0.363-0.131c-0.098-0.084-0.146-0.191-0.146-0.322c0-0.064,0.012-0.126,0.035-0.182
				c0.025-0.056,0.06-0.104,0.104-0.145c0.046-0.041,0.097-0.073,0.157-0.096c0.061-0.023,0.125-0.035,0.196-0.035
				c0.065,0,0.126,0.012,0.183,0.037c0.055,0.023,0.104,0.057,0.145,0.1c0.041,0.042,0.073,0.091,0.096,0.146
				c0.023,0.057,0.035,0.116,0.035,0.182c0,0.063-0.012,0.121-0.033,0.174s-0.052,0.1-0.092,0.141
				c-0.039,0.041-0.085,0.073-0.139,0.096C77.859,38.442,77.8,38.454,77.735,38.454z"/>
			<path d="M83.132,41.146c0,0.341-0.049,0.642-0.143,0.904c-0.096,0.263-0.232,0.483-0.407,0.661
				c-0.177,0.18-0.386,0.313-0.632,0.405c-0.244,0.091-0.518,0.138-0.82,0.138c-0.262,0-0.504-0.043-0.727-0.129
				c-0.225-0.086-0.416-0.215-0.579-0.385c-0.161-0.17-0.29-0.385-0.384-0.644S79.3,41.534,79.3,41.182
				c0-0.285,0.047-0.547,0.141-0.784s0.227-0.438,0.396-0.606s0.376-0.298,0.617-0.392c0.24-0.095,0.502-0.142,0.786-0.142
				c0.272,0,0.524,0.042,0.755,0.125c0.232,0.082,0.432,0.204,0.6,0.363c0.167,0.159,0.299,0.355,0.395,0.59
				C83.083,40.571,83.132,40.84,83.132,41.146z M82.253,41.24c0-0.213-0.014-0.419-0.043-0.618c-0.027-0.201-0.078-0.379-0.15-0.536
				c-0.073-0.156-0.173-0.282-0.301-0.378s-0.293-0.143-0.494-0.143c-0.224,0-0.404,0.047-0.544,0.143
				c-0.138,0.096-0.248,0.223-0.33,0.383c-0.083,0.159-0.138,0.338-0.168,0.539c-0.03,0.199-0.045,0.408-0.045,0.627
				c0,0.19,0.014,0.387,0.041,0.586c0.027,0.2,0.081,0.381,0.159,0.543c0.079,0.162,0.188,0.297,0.323,0.402
				c0.136,0.106,0.31,0.159,0.522,0.159c0.218,0,0.394-0.05,0.527-0.151c0.133-0.1,0.237-0.231,0.313-0.394
				c0.075-0.163,0.125-0.345,0.15-0.548C82.24,41.651,82.253,41.447,82.253,41.24z"/>
			<path d="M85.101,42.159c0,0.139,0.004,0.255,0.012,0.348c0.008,0.092,0.037,0.168,0.088,0.227s0.129,0.104,0.237,0.139
				c0.106,0.033,0.259,0.064,0.455,0.092c0.027,0.006,0.048,0.021,0.063,0.045c0.015,0.024,0.021,0.053,0.021,0.084
				s-0.008,0.059-0.025,0.084c-0.018,0.024-0.039,0.037-0.06,0.037c-0.239,0-0.451-0.01-0.636-0.029
				c-0.184-0.02-0.359-0.028-0.528-0.028c-0.177,0-0.354,0.009-0.53,0.028c-0.174,0.02-0.353,0.029-0.532,0.029
				c-0.026,0-0.048-0.013-0.061-0.037c-0.015-0.025-0.021-0.053-0.021-0.084s0.006-0.06,0.021-0.084
				c0.013-0.024,0.036-0.039,0.069-0.045c0.152-0.021,0.271-0.05,0.357-0.084c0.086-0.033,0.149-0.078,0.191-0.135
				c0.043-0.055,0.067-0.127,0.076-0.212c0.008-0.085,0.012-0.194,0.012-0.325v-1.221c0-0.271-0.006-0.49-0.016-0.652
				c-0.012-0.162-0.038-0.285-0.08-0.371c-0.043-0.086-0.107-0.145-0.196-0.176s-0.212-0.053-0.37-0.063
				c-0.026,0-0.047-0.014-0.061-0.041s-0.021-0.056-0.021-0.083c0-0.029,0.008-0.057,0.024-0.084s0.038-0.041,0.065-0.041
				c0.134-0.012,0.268-0.025,0.402-0.043s0.26-0.034,0.374-0.051s0.21-0.031,0.288-0.045c0.077-0.014,0.126-0.021,0.149-0.021
				c0.1,0,0.15,0.051,0.15,0.152c0,0.037-0.004,0.117-0.012,0.236c-0.009,0.119-0.012,0.225-0.012,0.314
				c0,0.012,0.004,0.018,0.016,0.018c0.01,0,0.019-0.006,0.024-0.018c0.095-0.244,0.228-0.433,0.398-0.563
				c0.17-0.13,0.396-0.196,0.681-0.196c0.232,0,0.406,0.055,0.518,0.166c0.111,0.109,0.168,0.255,0.168,0.436
				c0,0.1-0.036,0.191-0.108,0.271c-0.072,0.081-0.175,0.121-0.308,0.121c-0.129,0-0.219-0.03-0.268-0.093
				c-0.052-0.061-0.077-0.127-0.077-0.197c0-0.17-0.079-0.254-0.24-0.254c-0.106,0-0.202,0.035-0.29,0.104
				c-0.087,0.069-0.16,0.151-0.223,0.247c-0.061,0.096-0.107,0.193-0.141,0.295c-0.033,0.1-0.049,0.178-0.049,0.232V42.159z"/>
			<path d="M70.914,47.175c0-0.175-0.01-0.323-0.028-0.444c-0.02-0.12-0.058-0.221-0.113-0.301
				c-0.055-0.082-0.135-0.143-0.238-0.182c-0.104-0.042-0.241-0.068-0.412-0.078c-0.036,0-0.063-0.014-0.078-0.042
				c-0.017-0.027-0.025-0.06-0.025-0.095c0-0.036,0.009-0.068,0.025-0.098c0.016-0.029,0.042-0.044,0.078-0.044
				c0.176,0,0.379,0.009,0.607,0.024c0.229,0.017,0.443,0.024,0.645,0.024c0.115,0,0.226-0.003,0.328-0.008
				c0.104-0.005,0.205-0.011,0.302-0.017c0.099-0.006,0.197-0.011,0.299-0.016c0.101-0.006,0.208-0.009,0.322-0.009
				c0.033,0,0.056,0.013,0.069,0.04c0.014,0.025,0.021,0.055,0.021,0.084c0,0.039-0.009,0.074-0.026,0.106s-0.041,0.048-0.071,0.048
				c-0.174,0.01-0.313,0.033-0.419,0.068c-0.104,0.036-0.185,0.092-0.238,0.168c-0.055,0.076-0.092,0.176-0.109,0.3
				s-0.025,0.28-0.025,0.468v2.91c0,0.177,0.007,0.325,0.023,0.446c0.017,0.122,0.047,0.222,0.092,0.3
				c0.045,0.08,0.106,0.143,0.182,0.19c0.077,0.048,0.175,0.086,0.295,0.116c0.079,0.016,0.166,0.028,0.264,0.037
				c0.096,0.008,0.197,0.012,0.305,0.012c0.195,0,0.365-0.018,0.51-0.051c0.145-0.035,0.27-0.096,0.376-0.185
				c0.106-0.088,0.197-0.209,0.274-0.362c0.075-0.154,0.144-0.352,0.203-0.592c0.006-0.029,0.023-0.051,0.055-0.063
				s0.066-0.019,0.105-0.019c0.04,0,0.076,0.008,0.109,0.022c0.033,0.016,0.046,0.037,0.041,0.067
				c-0.027,0.237-0.052,0.479-0.075,0.726s-0.032,0.477-0.026,0.688c0,0.008-0.002,0.02-0.006,0.033
				c-0.005,0.014-0.014,0.027-0.027,0.039s-0.033,0.023-0.059,0.032c-0.025,0.011-0.061,0.015-0.101,0.015h-3.033
				c-0.219,0-0.429,0.007-0.626,0.021c-0.199,0.013-0.396,0.025-0.593,0.036c-0.038,0-0.067-0.014-0.088-0.04
				s-0.03-0.058-0.03-0.093s0.01-0.066,0.03-0.094c0.021-0.029,0.05-0.045,0.088-0.051c0.171-0.021,0.31-0.045,0.414-0.069
				c0.105-0.024,0.187-0.064,0.243-0.12c0.058-0.057,0.096-0.136,0.115-0.24c0.019-0.103,0.028-0.244,0.028-0.424v-3.281V47.175z"/>
			<path d="M76.478,50.525c0,0.138,0.004,0.255,0.01,0.351c0.008,0.096,0.027,0.174,0.06,0.234c0.032,0.063,0.083,0.109,0.153,0.144
				c0.068,0.034,0.168,0.06,0.295,0.076c0.03,0.005,0.054,0.019,0.068,0.042s0.022,0.051,0.022,0.08s-0.008,0.059-0.022,0.086
				s-0.038,0.041-0.068,0.041c-0.048,0-0.107-0.003-0.175-0.008c-0.068-0.006-0.142-0.013-0.219-0.021
				c-0.077-0.008-0.159-0.014-0.243-0.02c-0.086-0.006-0.169-0.009-0.25-0.009c-0.182,0-0.356,0.01-0.525,0.028
				c-0.169,0.02-0.333,0.029-0.49,0.029c-0.027,0-0.047-0.012-0.062-0.037c-0.014-0.024-0.021-0.052-0.021-0.082
				c0-0.029,0.007-0.058,0.022-0.083c0.015-0.026,0.037-0.042,0.067-0.047c0.147-0.017,0.261-0.042,0.341-0.075
				c0.081-0.031,0.14-0.078,0.177-0.139c0.036-0.059,0.057-0.133,0.063-0.219c0.006-0.088,0.008-0.195,0.008-0.323v-1.345
				c0-0.244-0.006-0.438-0.016-0.58c-0.012-0.141-0.037-0.25-0.078-0.326s-0.101-0.129-0.177-0.156
				c-0.079-0.029-0.185-0.053-0.317-0.068c-0.023,0-0.043-0.013-0.055-0.039c-0.013-0.025-0.02-0.054-0.02-0.083
				c0-0.03,0.007-0.06,0.02-0.087c0.012-0.027,0.031-0.041,0.055-0.041c0.123-0.008,0.25-0.021,0.383-0.039
				c0.135-0.017,0.26-0.036,0.375-0.057c0.117-0.02,0.217-0.037,0.3-0.051c0.084-0.014,0.138-0.021,0.159-0.021
				c0.068,0,0.111,0.021,0.131,0.06s0.029,0.075,0.029,0.107V50.525z M76.036,46.82c-0.139,0-0.26-0.044-0.363-0.131
				c-0.098-0.085-0.147-0.192-0.147-0.323c0-0.065,0.013-0.125,0.037-0.182c0.024-0.056,0.059-0.104,0.104-0.145
				c0.046-0.041,0.098-0.072,0.157-0.096c0.061-0.023,0.125-0.035,0.196-0.035c0.065,0,0.126,0.012,0.182,0.037
				c0.056,0.023,0.104,0.057,0.146,0.1c0.041,0.042,0.073,0.092,0.096,0.146c0.023,0.057,0.035,0.117,0.035,0.182
				c0,0.063-0.011,0.121-0.033,0.174c-0.021,0.054-0.052,0.101-0.092,0.142c-0.039,0.04-0.086,0.072-0.139,0.096
				C76.16,46.807,76.101,46.82,76.036,46.82z"/>
			<path d="M80.803,48.826c-0.372,0.92-0.771,1.86-1.196,2.822c-0.006,0.011-0.021,0.019-0.046,0.024
				c-0.024,0.005-0.05,0.008-0.077,0.008c-0.068,0-0.11-0.01-0.127-0.032c-0.239-0.487-0.464-0.958-0.674-1.411
				c-0.209-0.453-0.42-0.943-0.633-1.469c-0.055-0.134-0.103-0.246-0.145-0.335c-0.043-0.09-0.088-0.163-0.136-0.219
				s-0.103-0.099-0.167-0.128c-0.064-0.03-0.146-0.054-0.247-0.07c-0.026-0.006-0.048-0.02-0.062-0.047
				c-0.014-0.025-0.02-0.054-0.02-0.084c0-0.029,0.004-0.058,0.016-0.084c0.012-0.025,0.029-0.039,0.057-0.039
				c0.158,0,0.313,0.011,0.466,0.031c0.153,0.021,0.313,0.031,0.482,0.031c0.16,0,0.321-0.011,0.479-0.031
				c0.16-0.021,0.32-0.031,0.48-0.031c0.029,0,0.051,0.014,0.065,0.039c0.013,0.026,0.021,0.055,0.021,0.084
				c0,0.03-0.008,0.06-0.021,0.088c-0.015,0.028-0.036,0.043-0.065,0.043c-0.172,0.012-0.295,0.043-0.369,0.096
				c-0.076,0.055-0.113,0.131-0.113,0.231c0,0.081,0.021,0.184,0.066,0.306c0.127,0.347,0.261,0.683,0.399,1.01
				c0.14,0.326,0.282,0.635,0.43,0.928c0.011,0.027,0.026,0.039,0.049,0.035c0.021-0.002,0.038-0.014,0.049-0.035
				c0.057-0.126,0.121-0.277,0.194-0.457c0.072-0.178,0.143-0.359,0.212-0.546s0.134-0.372,0.196-0.556
				c0.061-0.184,0.113-0.344,0.152-0.477c0.022-0.074,0.033-0.143,0.033-0.208c0-0.142-0.043-0.229-0.131-0.261
				c-0.088-0.033-0.178-0.055-0.273-0.066c-0.027,0-0.048-0.015-0.062-0.043s-0.019-0.058-0.017-0.088
				c0.003-0.029,0.012-0.058,0.025-0.084c0.014-0.025,0.035-0.039,0.064-0.039c0.123,0,0.238,0.011,0.346,0.031
				s0.22,0.031,0.336,0.031c0.126,0,0.257-0.011,0.394-0.031c0.136-0.021,0.243-0.031,0.322-0.031c0.027,0,0.048,0.014,0.062,0.039
				c0.014,0.026,0.021,0.055,0.021,0.084c0,0.03-0.007,0.06-0.021,0.088s-0.031,0.043-0.053,0.043
				c-0.112,0.006-0.206,0.031-0.283,0.076c-0.076,0.045-0.143,0.102-0.197,0.172c-0.057,0.068-0.105,0.152-0.149,0.248
				C80.894,48.61,80.85,48.713,80.803,48.826z"/>
			<path d="M83.163,50.525c0,0.138,0.004,0.255,0.012,0.351c0.006,0.096,0.025,0.174,0.059,0.234
				c0.033,0.063,0.084,0.109,0.153,0.144s0.168,0.06,0.296,0.076c0.03,0.005,0.053,0.019,0.068,0.042
				c0.014,0.023,0.021,0.051,0.021,0.08s-0.008,0.059-0.021,0.086c-0.016,0.027-0.038,0.041-0.068,0.041
				c-0.049,0-0.107-0.003-0.176-0.008c-0.068-0.006-0.141-0.013-0.219-0.021c-0.078-0.008-0.158-0.014-0.243-0.02
				s-0.168-0.009-0.251-0.009c-0.18,0-0.355,0.01-0.523,0.028c-0.17,0.02-0.334,0.029-0.492,0.029c-0.026,0-0.047-0.012-0.061-0.037
				c-0.014-0.024-0.02-0.052-0.02-0.082c0-0.029,0.007-0.058,0.021-0.083c0.016-0.026,0.037-0.042,0.067-0.047
				c0.147-0.017,0.261-0.042,0.341-0.075c0.08-0.031,0.14-0.078,0.176-0.139c0.037-0.059,0.058-0.133,0.064-0.219
				c0.005-0.088,0.007-0.195,0.007-0.323v-1.345c0-0.244-0.005-0.438-0.017-0.58c-0.01-0.141-0.035-0.25-0.076-0.326
				s-0.1-0.129-0.178-0.156c-0.078-0.029-0.184-0.053-0.317-0.068c-0.024,0-0.042-0.013-0.055-0.039
				c-0.013-0.025-0.019-0.054-0.019-0.083c0-0.03,0.006-0.06,0.019-0.087s0.03-0.041,0.055-0.041
				c0.122-0.008,0.251-0.021,0.385-0.039c0.133-0.017,0.258-0.036,0.374-0.057c0.117-0.02,0.217-0.037,0.301-0.051
				c0.083-0.014,0.135-0.021,0.158-0.021c0.068,0,0.111,0.021,0.131,0.06c0.019,0.039,0.027,0.075,0.027,0.107V50.525z
				 M82.723,46.82c-0.139,0-0.26-0.044-0.364-0.131c-0.098-0.085-0.146-0.192-0.146-0.323c0-0.065,0.013-0.125,0.037-0.182
				c0.024-0.056,0.06-0.104,0.104-0.145c0.044-0.041,0.097-0.072,0.157-0.096c0.06-0.023,0.125-0.035,0.195-0.035
				c0.065,0,0.127,0.012,0.182,0.037c0.056,0.023,0.104,0.057,0.146,0.1c0.04,0.042,0.072,0.092,0.096,0.146
				c0.022,0.057,0.033,0.117,0.033,0.182c0,0.063-0.01,0.121-0.031,0.174c-0.022,0.054-0.053,0.101-0.093,0.142
				c-0.04,0.04-0.085,0.072-0.138,0.096C82.847,46.807,82.788,46.82,82.723,46.82z"/>
			<path d="M85.562,50.526c0,0.28,0.045,0.477,0.135,0.592c0.09,0.113,0.24,0.188,0.449,0.22c0.035,0.006,0.061,0.021,0.074,0.045
				s0.02,0.053,0.02,0.084c0,0.03-0.008,0.059-0.023,0.083c-0.016,0.025-0.04,0.037-0.07,0.037c-0.027,0-0.076-0.003-0.145-0.008
				c-0.07-0.006-0.15-0.012-0.243-0.021s-0.188-0.017-0.288-0.024c-0.1-0.009-0.192-0.013-0.278-0.013
				c-0.18,0-0.351,0.01-0.511,0.028c-0.162,0.02-0.316,0.029-0.463,0.029c-0.027,0-0.048-0.012-0.062-0.037
				c-0.014-0.024-0.021-0.051-0.021-0.08c0-0.028,0.007-0.056,0.021-0.083s0.037-0.044,0.069-0.049
				c0.137-0.022,0.242-0.048,0.317-0.076s0.13-0.069,0.163-0.122c0.034-0.054,0.054-0.125,0.059-0.213
				c0.006-0.088,0.009-0.203,0.009-0.345V49.52c0-0.277-0.001-0.508-0.005-0.689c-0.002-0.181-0.021-0.324-0.059-0.431
				c-0.036-0.106-0.094-0.182-0.172-0.226c-0.077-0.046-0.193-0.07-0.345-0.076c-0.032,0-0.056-0.014-0.069-0.041
				s-0.021-0.056-0.021-0.084s0.005-0.057,0.016-0.084s0.028-0.041,0.05-0.041c0.318-0.021,0.587-0.055,0.806-0.1
				s0.358-0.067,0.419-0.067c0.063,0,0.107,0.017,0.132,0.05c0.024,0.031,0.036,0.074,0.036,0.125c0,0.012-0.004,0.04-0.012,0.085
				c-0.009,0.044-0.018,0.097-0.028,0.155c-0.012,0.059-0.021,0.115-0.028,0.168c-0.01,0.053-0.014,0.093-0.014,0.119
				c0,0.012,0.004,0.017,0.014,0.017c0.008,0,0.015-0.005,0.02-0.017c0.039-0.067,0.097-0.145,0.176-0.23
				c0.078-0.085,0.173-0.168,0.283-0.247s0.238-0.146,0.384-0.2s0.301-0.082,0.466-0.082c0.398,0,0.708,0.116,0.93,0.348
				c0.224,0.232,0.336,0.605,0.336,1.123v1.431c0,0.149,0.004,0.272,0.016,0.367c0.011,0.095,0.033,0.172,0.069,0.23
				c0.035,0.059,0.087,0.103,0.155,0.134c0.068,0.033,0.16,0.057,0.278,0.073c0.026,0.005,0.048,0.021,0.061,0.045
				c0.014,0.024,0.021,0.052,0.021,0.083s-0.007,0.06-0.021,0.084c-0.013,0.025-0.034,0.037-0.061,0.037
				c-0.075,0-0.199-0.01-0.374-0.029c-0.176-0.019-0.348-0.028-0.513-0.028c-0.181,0-0.344,0.01-0.493,0.028
				c-0.148,0.02-0.273,0.029-0.377,0.029c-0.031,0-0.053-0.012-0.066-0.037c-0.013-0.024-0.021-0.051-0.023-0.08
				c-0.003-0.027,0.001-0.056,0.012-0.082c0.012-0.027,0.033-0.045,0.065-0.049c0.111-0.022,0.198-0.051,0.26-0.085
				s0.108-0.079,0.14-0.135s0.049-0.126,0.054-0.212c0.006-0.086,0.009-0.193,0.009-0.324v-1.27c0-0.138-0.004-0.277-0.012-0.415
				c-0.009-0.14-0.037-0.265-0.084-0.376s-0.117-0.203-0.208-0.277c-0.091-0.073-0.221-0.11-0.389-0.11
				c-0.335,0-0.593,0.108-0.772,0.323c-0.181,0.214-0.271,0.523-0.271,0.925V50.526z"/>
			<path d="M92.392,48.29c0.078,0.117,0.136,0.242,0.171,0.374c0.036,0.132,0.056,0.265,0.062,0.399c0,0.244-0.045,0.46-0.137,0.646
				c-0.092,0.186-0.217,0.344-0.376,0.471c-0.159,0.129-0.341,0.227-0.547,0.293s-0.427,0.101-0.66,0.101
				c-0.067,0-0.155,0.003-0.261,0.01c-0.107,0.007-0.21,0.022-0.311,0.048c-0.102,0.023-0.186,0.06-0.256,0.107
				c-0.069,0.048-0.104,0.113-0.104,0.197c0,0.066,0.029,0.119,0.092,0.162c0.062,0.042,0.146,0.078,0.256,0.104
				c0.107,0.027,0.234,0.05,0.377,0.064s0.298,0.027,0.464,0.039c0.285,0.016,0.558,0.047,0.813,0.092s0.479,0.117,0.672,0.216
				c0.191,0.1,0.343,0.233,0.454,0.404c0.112,0.171,0.167,0.391,0.167,0.659c0,0.199-0.046,0.39-0.14,0.57
				c-0.094,0.182-0.235,0.341-0.423,0.479s-0.418,0.246-0.69,0.326s-0.585,0.121-0.936,0.121c-0.313,0-0.597-0.025-0.85-0.076
				c-0.254-0.05-0.471-0.127-0.653-0.23s-0.324-0.235-0.424-0.396c-0.099-0.16-0.148-0.353-0.148-0.576
				c0-0.127,0.021-0.246,0.065-0.355c0.044-0.107,0.102-0.207,0.171-0.293c0.071-0.088,0.152-0.162,0.244-0.224
				c0.091-0.062,0.185-0.108,0.279-0.141c-0.067-0.022-0.135-0.052-0.202-0.088c-0.066-0.036-0.126-0.081-0.179-0.134
				c-0.055-0.054-0.098-0.117-0.134-0.188c-0.036-0.072-0.054-0.159-0.054-0.259c0-0.15,0.029-0.275,0.088-0.373
				c0.06-0.098,0.137-0.178,0.233-0.238s0.206-0.105,0.327-0.133s0.24-0.043,0.357-0.049c0.006,0,0.008-0.004,0.008-0.011
				s-0.002-0.011-0.008-0.011c-0.287-0.108-0.51-0.262-0.672-0.461c-0.162-0.198-0.243-0.466-0.243-0.801
				c0-0.229,0.042-0.436,0.127-0.623c0.083-0.186,0.202-0.345,0.354-0.475c0.152-0.132,0.338-0.232,0.557-0.305
				c0.217-0.072,0.457-0.109,0.719-0.109c0.297,0,0.532,0.043,0.708,0.125c0.176,0.083,0.337,0.191,0.48,0.325
				c0.106-0.106,0.231-0.196,0.378-0.268c0.146-0.072,0.307-0.108,0.484-0.108c0.063,0,0.131,0.005,0.205,0.017
				c0.076,0.011,0.145,0.032,0.209,0.063s0.117,0.072,0.159,0.122s0.063,0.116,0.063,0.198c0,0.096-0.025,0.181-0.076,0.255
				c-0.049,0.075-0.146,0.112-0.292,0.112c-0.106,0-0.177-0.021-0.21-0.065c-0.033-0.043-0.059-0.091-0.075-0.141
				s-0.036-0.098-0.058-0.143s-0.075-0.067-0.159-0.067c-0.09,0-0.18,0.022-0.271,0.067C92.501,48.162,92.435,48.219,92.392,48.29z
				 M90.125,51.961c-0.097,0.068-0.171,0.172-0.228,0.308c-0.056,0.136-0.084,0.268-0.084,0.396c0,0.19,0.043,0.356,0.127,0.496
				c0.084,0.141,0.193,0.258,0.327,0.352c0.133,0.094,0.281,0.164,0.442,0.213c0.163,0.048,0.324,0.071,0.484,0.071
				c0.196,0,0.378-0.024,0.545-0.075c0.168-0.051,0.312-0.119,0.432-0.205s0.213-0.188,0.279-0.309c0.066-0.119,0.1-0.247,0.1-0.384
				c0-0.171-0.063-0.312-0.188-0.421c-0.125-0.108-0.297-0.193-0.514-0.254c-0.219-0.062-0.475-0.105-0.771-0.13
				S90.465,51.975,90.125,51.961z M90.93,50.266c0.288,0,0.495-0.094,0.62-0.285c0.125-0.19,0.188-0.467,0.188-0.828
				c0-0.184-0.011-0.351-0.029-0.502c-0.019-0.15-0.056-0.281-0.112-0.39c-0.056-0.108-0.13-0.192-0.223-0.251
				c-0.092-0.059-0.211-0.088-0.355-0.088c-0.177,0-0.319,0.039-0.428,0.115c-0.109,0.076-0.195,0.172-0.256,0.289
				c-0.062,0.117-0.104,0.248-0.127,0.393s-0.035,0.285-0.035,0.424c0,0.367,0.065,0.647,0.194,0.838
				C90.497,50.172,90.684,50.266,90.93,50.266z"/>
		</g>
		<g>
			<path fill="#586B3C" d="M64.114,38.534c0,0.169,0.035,0.311,0.104,0.422c0.071,0.114,0.16,0.211,0.268,0.289
				c0.109,0.079,0.229,0.147,0.36,0.206c0.131,0.06,0.257,0.115,0.38,0.169c0.213,0.102,0.423,0.207,0.633,0.319
				s0.398,0.241,0.564,0.39s0.301,0.324,0.404,0.527s0.154,0.449,0.154,0.742c0,0.288-0.06,0.531-0.18,0.73
				c-0.119,0.199-0.275,0.361-0.467,0.486c-0.192,0.125-0.408,0.216-0.648,0.271c-0.239,0.057-0.479,0.084-0.719,0.084
				c-0.157,0-0.334-0.024-0.528-0.072c-0.195-0.047-0.372-0.119-0.533-0.215c-0.03-0.01-0.058-0.021-0.081-0.032
				c-0.025-0.011-0.057-0.017-0.095-0.017c-0.041,0-0.084,0.017-0.128,0.049c-0.045,0.033-0.084,0.092-0.117,0.177
				c-0.016,0.032-0.039,0.055-0.066,0.067c-0.029,0.012-0.059,0.016-0.088,0.012c-0.03-0.004-0.055-0.014-0.074-0.029
				c-0.02-0.018-0.028-0.037-0.028-0.059c0.017-0.123,0.031-0.255,0.045-0.398c0.014-0.143,0.021-0.286,0.021-0.431
				s-0.004-0.288-0.013-0.433c-0.008-0.145-0.023-0.295-0.045-0.453c-0.005-0.033,0.005-0.062,0.032-0.084
				c0.027-0.023,0.059-0.036,0.093-0.039c0.033-0.002,0.065,0.004,0.096,0.018c0.03,0.016,0.048,0.039,0.054,0.072
				c0.035,0.229,0.097,0.437,0.186,0.623c0.088,0.186,0.199,0.346,0.332,0.476c0.135,0.132,0.285,0.233,0.455,0.308
				c0.171,0.072,0.357,0.109,0.559,0.109c0.149,0,0.293-0.021,0.431-0.063c0.138-0.043,0.259-0.104,0.366-0.186
				c0.106-0.079,0.189-0.178,0.251-0.295s0.091-0.256,0.091-0.413c0-0.201-0.043-0.376-0.13-0.526s-0.194-0.279-0.322-0.389
				c-0.129-0.109-0.271-0.203-0.427-0.283c-0.157-0.081-0.305-0.154-0.443-0.223c-0.186-0.085-0.369-0.172-0.555-0.26
				c-0.183-0.088-0.348-0.195-0.491-0.32s-0.263-0.276-0.352-0.451c-0.089-0.176-0.135-0.396-0.135-0.66
				c0-0.268,0.054-0.49,0.163-0.672s0.253-0.328,0.432-0.439c0.178-0.111,0.383-0.192,0.61-0.243
				c0.229-0.05,0.466-0.075,0.711-0.075c0.157,0,0.29,0.01,0.398,0.027c0.106,0.021,0.229,0.053,0.365,0.1
				c0.071,0.021,0.13,0.039,0.177,0.053c0.049,0.014,0.094,0.02,0.138,0.02c0.068,0,0.116-0.025,0.144-0.08
				c0.011-0.022,0.031-0.037,0.063-0.047c0.032-0.01,0.061-0.014,0.088-0.01s0.053,0.012,0.076,0.023
				c0.023,0.011,0.031,0.027,0.026,0.049c-0.03,0.102-0.05,0.201-0.058,0.301s-0.012,0.205-0.012,0.316
				c0,0.146,0.009,0.279,0.026,0.396c0.018,0.116,0.032,0.255,0.043,0.416c0,0.016-0.012,0.031-0.035,0.045
				c-0.022,0.014-0.05,0.022-0.079,0.025c-0.029,0.006-0.059,0-0.088-0.011c-0.028-0.013-0.047-0.032-0.051-0.06
				c-0.056-0.245-0.116-0.447-0.183-0.606s-0.15-0.283-0.251-0.372s-0.223-0.149-0.365-0.184c-0.144-0.034-0.314-0.051-0.512-0.051
				c-0.143,0-0.276,0.018-0.402,0.055c-0.125,0.037-0.234,0.091-0.328,0.164c-0.094,0.072-0.168,0.162-0.225,0.271
				C64.143,38.271,64.114,38.395,64.114,38.534z"/>
			<path fill="#586B3C" d="M68.571,40.919c-0.027,0-0.043,0.01-0.045,0.028c-0.002,0.02-0.004,0.043-0.004,0.07
				c0,0.291,0.034,0.537,0.104,0.736c0.069,0.2,0.165,0.363,0.286,0.488c0.122,0.125,0.263,0.217,0.425,0.271
				c0.162,0.057,0.337,0.084,0.525,0.084c0.188,0,0.369-0.018,0.547-0.053c0.177-0.035,0.34-0.106,0.486-0.213
				c0.043-0.041,0.09-0.029,0.139,0.033c0.052,0.061,0.059,0.11,0.02,0.15c-0.182,0.229-0.383,0.39-0.604,0.482
				c-0.221,0.09-0.496,0.135-0.825,0.135c-0.335,0-0.626-0.051-0.874-0.151s-0.454-0.24-0.619-0.419
				c-0.165-0.178-0.287-0.389-0.367-0.633c-0.081-0.244-0.12-0.508-0.12-0.795c0-0.277,0.046-0.537,0.138-0.779
				c0.094-0.242,0.221-0.453,0.387-0.633c0.164-0.18,0.362-0.322,0.594-0.428c0.232-0.105,0.486-0.156,0.764-0.156
				c0.234,0,0.447,0.039,0.638,0.119c0.19,0.081,0.354,0.192,0.49,0.336c0.136,0.143,0.241,0.313,0.317,0.508
				c0.074,0.197,0.111,0.41,0.111,0.643c0,0.116-0.041,0.175-0.126,0.175H68.571z M70.103,40.625c0.041,0,0.072-0.008,0.093-0.023
				c0.02-0.014,0.034-0.035,0.042-0.061s0.014-0.057,0.015-0.09c0.001-0.034,0.003-0.072,0.003-0.112
				c0-0.118-0.02-0.229-0.057-0.337c-0.036-0.107-0.088-0.203-0.154-0.289c-0.066-0.084-0.148-0.15-0.246-0.201
				c-0.096-0.051-0.205-0.076-0.324-0.076c-0.152,0-0.282,0.027-0.391,0.08c-0.106,0.053-0.197,0.124-0.271,0.213
				c-0.072,0.089-0.131,0.19-0.171,0.307c-0.041,0.115-0.069,0.236-0.085,0.365c-0.012,0.065-0.016,0.119-0.014,0.16
				c0.003,0.043,0.016,0.064,0.037,0.064H70.103z"/>
			<path fill="#586B3C" d="M72.991,42.04c0,0.281,0.044,0.478,0.135,0.592c0.09,0.114,0.239,0.188,0.449,0.221
				c0.035,0.006,0.06,0.02,0.073,0.045c0.014,0.024,0.021,0.052,0.021,0.083c0,0.032-0.008,0.06-0.024,0.084
				s-0.04,0.036-0.069,0.036c-0.027,0-0.076-0.002-0.146-0.008c-0.069-0.005-0.149-0.012-0.243-0.02
				c-0.092-0.009-0.188-0.017-0.288-0.025c-0.101-0.008-0.192-0.012-0.277-0.012c-0.181,0-0.352,0.01-0.513,0.028
				c-0.16,0.019-0.314,0.028-0.462,0.028c-0.027,0-0.047-0.012-0.061-0.036c-0.015-0.024-0.021-0.052-0.021-0.081
				c0-0.027,0.006-0.056,0.021-0.082c0.014-0.027,0.036-0.045,0.069-0.05c0.135-0.022,0.241-0.047,0.316-0.075
				c0.075-0.029,0.129-0.07,0.163-0.123s0.054-0.123,0.06-0.213c0.005-0.088,0.009-0.203,0.009-0.344v-1.055
				c0-0.277-0.002-0.508-0.005-0.688c-0.003-0.182-0.021-0.326-0.059-0.432c-0.037-0.106-0.094-0.182-0.172-0.227
				s-0.193-0.07-0.346-0.076c-0.033,0-0.055-0.014-0.068-0.041s-0.021-0.055-0.021-0.084c0-0.027,0.006-0.056,0.018-0.083
				c0.01-0.026,0.025-0.04,0.049-0.04c0.317-0.021,0.586-0.056,0.806-0.1c0.218-0.047,0.357-0.068,0.418-0.068
				c0.063,0,0.106,0.016,0.132,0.049c0.023,0.033,0.037,0.075,0.037,0.127c0,0.011-0.004,0.039-0.014,0.084
				c-0.007,0.045-0.017,0.096-0.028,0.154c-0.011,0.059-0.02,0.115-0.028,0.168c-0.008,0.053-0.012,0.093-0.012,0.121
				c0,0.011,0.004,0.016,0.012,0.016c0.009,0,0.016-0.005,0.021-0.016c0.037-0.068,0.097-0.146,0.174-0.232
				c0.08-0.085,0.174-0.168,0.284-0.246s0.237-0.146,0.384-0.2c0.146-0.054,0.301-0.081,0.467-0.081c0.396,0,0.707,0.115,0.93,0.346
				c0.223,0.232,0.335,0.607,0.335,1.125v1.429c0,0.149,0.005,0.272,0.017,0.368c0.01,0.095,0.033,0.172,0.069,0.23
				c0.034,0.059,0.087,0.104,0.155,0.135s0.16,0.055,0.277,0.071c0.027,0.005,0.048,0.021,0.062,0.045
				c0.013,0.024,0.02,0.052,0.02,0.083s-0.007,0.061-0.02,0.085c-0.014,0.024-0.034,0.036-0.062,0.036
				c-0.074,0-0.198-0.01-0.373-0.028c-0.178-0.019-0.348-0.028-0.514-0.028c-0.18,0-0.344,0.01-0.492,0.028
				s-0.273,0.028-0.378,0.028c-0.03,0-0.052-0.012-0.064-0.036c-0.015-0.024-0.022-0.052-0.025-0.08s0.001-0.057,0.013-0.083
				c0.012-0.027,0.032-0.045,0.064-0.049c0.111-0.023,0.198-0.051,0.26-0.084c0.061-0.033,0.107-0.08,0.139-0.135
				c0.031-0.056,0.051-0.127,0.056-0.212c0.005-0.086,0.009-0.194,0.009-0.325v-1.268c0-0.139-0.004-0.278-0.013-0.417
				s-0.036-0.264-0.084-0.376c-0.048-0.111-0.116-0.203-0.208-0.276c-0.091-0.074-0.221-0.11-0.389-0.11
				c-0.335,0-0.592,0.107-0.772,0.322c-0.18,0.215-0.271,0.523-0.271,0.926V42.04z"/>
			<path fill="#586B3C" d="M77.913,42.039c0,0.139,0.003,0.255,0.01,0.351c0.008,0.096,0.027,0.174,0.06,0.236
				c0.032,0.061,0.084,0.108,0.153,0.143c0.069,0.033,0.168,0.059,0.296,0.075c0.03,0.005,0.052,0.02,0.067,0.043
				c0.015,0.022,0.022,0.05,0.022,0.079c0,0.03-0.008,0.059-0.022,0.086c-0.016,0.027-0.037,0.041-0.067,0.041
				c-0.049,0-0.107-0.003-0.176-0.008c-0.068-0.006-0.141-0.012-0.218-0.021c-0.078-0.008-0.16-0.015-0.244-0.021
				c-0.086-0.006-0.168-0.008-0.25-0.008c-0.182,0-0.355,0.01-0.525,0.028c-0.169,0.019-0.333,0.028-0.49,0.028
				c-0.027,0-0.047-0.012-0.061-0.036c-0.015-0.024-0.021-0.052-0.021-0.083c0-0.029,0.007-0.057,0.021-0.083
				c0.016-0.026,0.038-0.042,0.067-0.047c0.147-0.017,0.261-0.04,0.342-0.073c0.08-0.033,0.139-0.079,0.175-0.139
				c0.036-0.061,0.058-0.134,0.064-0.221c0.005-0.088,0.007-0.195,0.007-0.322v-1.344c0-0.246-0.005-0.439-0.016-0.581
				c-0.01-0.142-0.037-0.251-0.078-0.327s-0.1-0.128-0.178-0.156c-0.076-0.029-0.183-0.052-0.316-0.068
				c-0.023,0-0.043-0.013-0.055-0.039c-0.013-0.025-0.018-0.053-0.018-0.083s0.005-0.059,0.018-0.086
				c0.012-0.026,0.031-0.04,0.055-0.04c0.123-0.008,0.251-0.021,0.384-0.039c0.134-0.018,0.259-0.037,0.374-0.058
				c0.117-0.021,0.217-0.037,0.301-0.051c0.084-0.015,0.136-0.021,0.158-0.021c0.068,0,0.111,0.02,0.131,0.059
				s0.029,0.076,0.029,0.109V42.039z M77.472,38.334c-0.139,0-0.26-0.045-0.363-0.132c-0.099-0.084-0.146-0.191-0.146-0.322
				c0-0.065,0.012-0.126,0.035-0.182c0.025-0.056,0.061-0.104,0.104-0.146c0.046-0.041,0.099-0.072,0.157-0.096
				c0.061-0.023,0.126-0.034,0.197-0.034c0.064,0,0.126,0.012,0.181,0.036c0.056,0.025,0.104,0.059,0.146,0.101
				s0.072,0.091,0.096,0.146s0.035,0.116,0.035,0.183c0,0.063-0.012,0.12-0.033,0.173s-0.053,0.101-0.092,0.141
				c-0.039,0.042-0.086,0.073-0.139,0.097S77.536,38.334,77.472,38.334z"/>
			<path fill="#586B3C" d="M82.868,41.026c0,0.34-0.048,0.642-0.144,0.904c-0.095,0.263-0.23,0.484-0.406,0.662
				s-0.386,0.313-0.631,0.404c-0.245,0.091-0.519,0.137-0.821,0.137c-0.262,0-0.504-0.043-0.728-0.129s-0.415-0.214-0.578-0.384
				c-0.161-0.17-0.29-0.384-0.384-0.644c-0.094-0.258-0.141-0.563-0.141-0.915c0-0.286,0.047-0.548,0.141-0.784
				s0.227-0.439,0.396-0.606s0.376-0.298,0.617-0.392c0.24-0.094,0.503-0.141,0.786-0.141c0.272,0,0.524,0.041,0.756,0.125
				c0.231,0.082,0.431,0.203,0.599,0.362c0.166,0.159,0.299,0.356,0.394,0.591C82.82,40.451,82.868,40.721,82.868,41.026z
				 M81.989,41.12c0-0.213-0.014-0.418-0.043-0.619c-0.028-0.2-0.078-0.379-0.15-0.535c-0.073-0.156-0.173-0.283-0.301-0.378
				s-0.293-0.143-0.494-0.143c-0.223,0-0.404,0.048-0.543,0.143c-0.14,0.095-0.25,0.223-0.331,0.382
				c-0.081,0.16-0.138,0.34-0.167,0.539c-0.03,0.201-0.046,0.41-0.046,0.627c0,0.191,0.015,0.387,0.041,0.586
				c0.027,0.201,0.081,0.382,0.159,0.543c0.079,0.164,0.187,0.297,0.324,0.403c0.135,0.106,0.309,0.159,0.521,0.159
				c0.219,0,0.394-0.051,0.527-0.15c0.133-0.102,0.236-0.232,0.313-0.395c0.074-0.162,0.125-0.346,0.15-0.547
				C81.976,41.532,81.989,41.327,81.989,41.12z"/>
			<path fill="#586B3C" d="M84.837,42.039c0,0.139,0.004,0.255,0.012,0.347c0.009,0.094,0.038,0.169,0.088,0.228
				c0.051,0.058,0.13,0.104,0.236,0.139c0.109,0.034,0.26,0.065,0.456,0.092c0.027,0.005,0.049,0.021,0.063,0.045
				c0.016,0.024,0.021,0.052,0.021,0.083s-0.008,0.061-0.025,0.085s-0.037,0.036-0.06,0.036c-0.239,0-0.452-0.01-0.636-0.028
				s-0.359-0.028-0.528-0.028c-0.177,0-0.354,0.01-0.528,0.028c-0.176,0.019-0.354,0.028-0.533,0.028
				c-0.027,0-0.048-0.012-0.062-0.036s-0.021-0.054-0.021-0.085s0.007-0.059,0.021-0.083s0.036-0.04,0.069-0.045
				c0.152-0.022,0.271-0.05,0.357-0.084s0.149-0.079,0.191-0.134c0.043-0.057,0.067-0.127,0.076-0.213
				c0.008-0.086,0.012-0.194,0.012-0.324v-1.223c0-0.271-0.006-0.488-0.016-0.65c-0.011-0.162-0.038-0.287-0.08-0.372
				c-0.042-0.086-0.107-0.146-0.195-0.177c-0.089-0.031-0.213-0.052-0.37-0.063c-0.027,0-0.048-0.014-0.062-0.041
				s-0.021-0.055-0.021-0.084c0-0.028,0.008-0.057,0.024-0.084c0.017-0.026,0.038-0.039,0.064-0.039
				c0.135-0.012,0.269-0.026,0.404-0.044c0.135-0.019,0.259-0.034,0.373-0.051s0.21-0.031,0.287-0.045
				c0.078-0.015,0.128-0.021,0.15-0.021c0.1,0,0.15,0.051,0.15,0.15c0,0.039-0.004,0.117-0.012,0.237
				c-0.009,0.12-0.012,0.225-0.012,0.315c0,0.011,0.005,0.016,0.016,0.016s0.02-0.005,0.024-0.016
				c0.096-0.246,0.228-0.434,0.397-0.564c0.171-0.131,0.397-0.195,0.681-0.195c0.235,0,0.407,0.055,0.52,0.164
				c0.111,0.111,0.167,0.256,0.167,0.436c0,0.101-0.036,0.191-0.108,0.271c-0.072,0.081-0.175,0.121-0.308,0.121
				c-0.129,0-0.218-0.031-0.269-0.092c-0.05-0.062-0.075-0.127-0.075-0.198c0-0.169-0.08-0.254-0.24-0.254
				c-0.107,0-0.203,0.034-0.291,0.104s-0.161,0.152-0.223,0.247c-0.061,0.096-0.107,0.193-0.141,0.294s-0.049,0.178-0.049,0.233
				V42.039z"/>
			<path fill="#586B3C" d="M70.65,47.055c0-0.175-0.009-0.322-0.028-0.443s-0.057-0.223-0.113-0.303
				c-0.056-0.08-0.135-0.141-0.238-0.182s-0.241-0.066-0.412-0.078c-0.035,0-0.063-0.014-0.079-0.041s-0.023-0.059-0.023-0.096
				c0-0.035,0.007-0.068,0.023-0.098c0.017-0.028,0.044-0.043,0.079-0.043c0.176,0,0.379,0.008,0.607,0.025
				c0.229,0.016,0.443,0.023,0.644,0.023c0.117,0,0.227-0.002,0.33-0.008c0.103-0.006,0.204-0.012,0.302-0.016
				c0.098-0.006,0.197-0.012,0.297-0.018c0.102-0.005,0.209-0.008,0.324-0.008c0.032,0,0.056,0.014,0.069,0.039
				c0.014,0.027,0.02,0.055,0.02,0.086c0,0.038-0.008,0.074-0.026,0.105c-0.018,0.031-0.041,0.047-0.071,0.047
				c-0.175,0.012-0.313,0.034-0.419,0.07c-0.104,0.035-0.184,0.09-0.238,0.168c-0.055,0.075-0.092,0.176-0.109,0.299
				c-0.017,0.124-0.025,0.279-0.025,0.467v2.91c0,0.178,0.008,0.326,0.024,0.447c0.016,0.121,0.047,0.221,0.092,0.301
				c0.045,0.078,0.105,0.143,0.181,0.189c0.077,0.047,0.175,0.086,0.295,0.116c0.079,0.017,0.167,0.028,0.264,0.036
				s0.198,0.012,0.304,0.012c0.196,0,0.366-0.016,0.511-0.051c0.145-0.033,0.27-0.095,0.377-0.184
				c0.105-0.088,0.197-0.209,0.273-0.363s0.144-0.351,0.204-0.59c0.005-0.029,0.022-0.051,0.056-0.063
				c0.03-0.013,0.064-0.02,0.104-0.02c0.041,0,0.076,0.008,0.109,0.023c0.033,0.015,0.047,0.037,0.041,0.066
				c-0.027,0.236-0.053,0.479-0.075,0.725c-0.022,0.247-0.032,0.477-0.026,0.689c0,0.008-0.002,0.02-0.006,0.033
				c-0.004,0.013-0.014,0.025-0.027,0.038c-0.014,0.012-0.033,0.022-0.059,0.032s-0.059,0.014-0.1,0.014h-3.034
				c-0.219,0-0.429,0.008-0.627,0.021s-0.396,0.025-0.592,0.036c-0.038,0-0.067-0.013-0.088-0.04
				c-0.021-0.026-0.03-0.057-0.03-0.092s0.01-0.066,0.03-0.096c0.021-0.027,0.05-0.045,0.088-0.051
				c0.172-0.021,0.31-0.045,0.415-0.068c0.104-0.025,0.186-0.064,0.242-0.121c0.058-0.056,0.096-0.135,0.115-0.238
				s0.028-0.245,0.028-0.426v-3.279V47.055z"/>
			<path fill="#586B3C" d="M76.214,50.405c0,0.139,0.003,0.256,0.01,0.352c0.008,0.095,0.027,0.173,0.06,0.234
				c0.032,0.061,0.084,0.108,0.153,0.143c0.069,0.033,0.168,0.06,0.296,0.076c0.03,0.005,0.052,0.02,0.067,0.043
				c0.015,0.022,0.022,0.049,0.022,0.08c0,0.029-0.008,0.058-0.022,0.084c-0.016,0.027-0.037,0.041-0.067,0.041
				c-0.049,0-0.108-0.002-0.176-0.008c-0.068-0.006-0.141-0.012-0.218-0.02c-0.078-0.008-0.16-0.016-0.244-0.021
				c-0.086-0.006-0.168-0.009-0.25-0.009c-0.181,0-0.355,0.01-0.525,0.029c-0.169,0.018-0.333,0.027-0.49,0.027
				c-0.027,0-0.047-0.012-0.061-0.035c-0.015-0.025-0.021-0.053-0.021-0.082c0-0.03,0.008-0.059,0.022-0.084
				c0.016-0.025,0.038-0.042,0.067-0.047c0.147-0.017,0.261-0.042,0.342-0.074c0.08-0.033,0.139-0.079,0.175-0.139
				c0.036-0.061,0.058-0.133,0.064-0.221c0.005-0.088,0.007-0.194,0.007-0.322V49.11c0-0.246-0.006-0.439-0.016-0.58
				c-0.012-0.143-0.037-0.251-0.078-0.327s-0.1-0.128-0.178-0.157c-0.076-0.028-0.183-0.051-0.316-0.067
				c-0.023,0-0.043-0.013-0.055-0.039c-0.013-0.025-0.02-0.054-0.02-0.083c0-0.031,0.007-0.06,0.02-0.086
				c0.012-0.027,0.031-0.041,0.055-0.041c0.123-0.009,0.251-0.021,0.385-0.039c0.133-0.018,0.258-0.037,0.374-0.057
				c0.116-0.021,0.217-0.039,0.3-0.052c0.083-0.014,0.136-0.021,0.158-0.021c0.068,0,0.111,0.02,0.131,0.06
				c0.02,0.039,0.029,0.075,0.029,0.108V50.405z M75.772,46.7c-0.139,0-0.26-0.044-0.363-0.131
				c-0.099-0.085-0.146-0.191-0.146-0.323c0-0.065,0.012-0.126,0.035-0.181c0.025-0.057,0.061-0.105,0.105-0.146
				s0.097-0.073,0.156-0.097c0.061-0.023,0.126-0.034,0.197-0.034c0.064,0,0.125,0.013,0.181,0.036
				c0.056,0.025,0.104,0.059,0.146,0.1c0.041,0.043,0.072,0.092,0.096,0.148c0.023,0.055,0.035,0.115,0.035,0.181
				c0,0.063-0.012,0.122-0.033,0.175s-0.052,0.1-0.092,0.141c-0.039,0.041-0.086,0.072-0.139,0.096S75.837,46.7,75.772,46.7z"/>
			<path fill="#586B3C" d="M80.54,48.706c-0.374,0.92-0.772,1.861-1.197,2.822c-0.006,0.01-0.021,0.02-0.045,0.023
				c-0.025,0.006-0.051,0.009-0.077,0.009c-0.068,0-0.11-0.011-0.128-0.032c-0.238-0.488-0.463-0.958-0.674-1.412
				c-0.209-0.453-0.42-0.942-0.633-1.469c-0.055-0.133-0.103-0.244-0.145-0.334c-0.043-0.09-0.088-0.162-0.136-0.219
				c-0.047-0.055-0.103-0.098-0.167-0.129c-0.064-0.03-0.146-0.053-0.248-0.069c-0.025-0.005-0.047-0.021-0.061-0.047
				s-0.021-0.054-0.021-0.084s0.006-0.058,0.017-0.083s0.03-0.039,0.058-0.039c0.158,0,0.313,0.01,0.466,0.03s0.313,0.03,0.482,0.03
				c0.16,0,0.32-0.01,0.479-0.03c0.16-0.021,0.32-0.03,0.48-0.03c0.029,0,0.053,0.014,0.065,0.039
				c0.014,0.025,0.021,0.053,0.021,0.083s-0.007,0.06-0.021,0.088c-0.013,0.028-0.036,0.043-0.065,0.043
				c-0.172,0.011-0.295,0.043-0.37,0.097c-0.074,0.053-0.112,0.129-0.112,0.23c0,0.082,0.022,0.184,0.066,0.307
				c0.127,0.346,0.261,0.682,0.4,1.01c0.139,0.326,0.281,0.635,0.428,0.926c0.012,0.027,0.027,0.039,0.049,0.037
				s0.038-0.016,0.049-0.037c0.058-0.125,0.123-0.277,0.195-0.455s0.143-0.361,0.212-0.547c0.069-0.188,0.134-0.372,0.196-0.557
				c0.061-0.184,0.112-0.342,0.152-0.476c0.022-0.073,0.033-0.144,0.033-0.208c0-0.142-0.043-0.229-0.131-0.262
				c-0.087-0.033-0.178-0.055-0.273-0.065c-0.027,0-0.048-0.015-0.062-0.043c-0.013-0.028-0.019-0.058-0.017-0.088
				c0.004-0.03,0.012-0.058,0.025-0.083s0.035-0.039,0.064-0.039c0.123,0,0.238,0.01,0.346,0.03s0.221,0.03,0.338,0.03
				c0.124,0,0.256-0.01,0.391-0.03c0.137-0.021,0.244-0.03,0.323-0.03c0.027,0,0.048,0.014,0.062,0.039s0.021,0.053,0.021,0.083
				s-0.007,0.06-0.021,0.088s-0.031,0.043-0.053,0.043c-0.112,0.005-0.206,0.03-0.282,0.076c-0.077,0.045-0.142,0.103-0.198,0.171
				c-0.056,0.07-0.105,0.152-0.149,0.25C80.631,48.489,80.586,48.593,80.54,48.706z"/>
			<path fill="#586B3C" d="M82.901,50.405c0,0.139,0.003,0.256,0.01,0.352c0.006,0.095,0.026,0.173,0.059,0.234
				c0.033,0.061,0.084,0.108,0.153,0.143c0.069,0.033,0.168,0.06,0.296,0.076c0.029,0.005,0.053,0.02,0.067,0.043
				c0.015,0.022,0.022,0.049,0.022,0.08c0,0.029-0.008,0.058-0.022,0.084c-0.015,0.027-0.038,0.041-0.067,0.041
				c-0.049,0-0.107-0.002-0.176-0.008c-0.067-0.006-0.141-0.012-0.219-0.02c-0.076-0.008-0.158-0.016-0.244-0.021
				c-0.084-0.006-0.168-0.009-0.25-0.009c-0.18,0-0.355,0.01-0.523,0.029c-0.17,0.018-0.333,0.027-0.49,0.027
				c-0.027,0-0.049-0.012-0.063-0.035c-0.014-0.025-0.02-0.053-0.02-0.082c0-0.03,0.007-0.059,0.021-0.084
				c0.016-0.025,0.037-0.042,0.067-0.047c0.147-0.017,0.262-0.042,0.341-0.074c0.08-0.033,0.139-0.079,0.176-0.139
				c0.037-0.061,0.059-0.133,0.064-0.221c0.005-0.088,0.008-0.194,0.008-0.322V49.11c0-0.246-0.006-0.439-0.018-0.58
				c-0.01-0.143-0.035-0.251-0.077-0.327c-0.04-0.076-0.1-0.128-0.177-0.157c-0.078-0.028-0.184-0.051-0.317-0.067
				c-0.024,0-0.042-0.013-0.055-0.039c-0.013-0.025-0.019-0.054-0.019-0.083c0-0.031,0.006-0.06,0.019-0.086
				c0.013-0.027,0.03-0.041,0.055-0.041c0.123-0.009,0.251-0.021,0.384-0.039c0.135-0.018,0.26-0.037,0.376-0.057
				c0.116-0.021,0.216-0.039,0.3-0.052c0.082-0.014,0.136-0.021,0.157-0.021c0.069,0,0.112,0.02,0.132,0.06
				c0.02,0.039,0.029,0.075,0.029,0.108V50.405z M82.459,46.7c-0.139,0-0.259-0.044-0.364-0.131
				c-0.097-0.085-0.146-0.191-0.146-0.323c0-0.065,0.013-0.126,0.037-0.181c0.023-0.057,0.06-0.105,0.104-0.146
				c0.044-0.04,0.098-0.073,0.157-0.097c0.061-0.023,0.125-0.034,0.195-0.034c0.066,0,0.127,0.013,0.182,0.036
				c0.057,0.025,0.104,0.059,0.146,0.1c0.04,0.043,0.073,0.092,0.097,0.148c0.023,0.055,0.035,0.115,0.035,0.181
				c0,0.063-0.012,0.122-0.033,0.175s-0.053,0.1-0.092,0.141c-0.04,0.041-0.086,0.072-0.14,0.096
				C82.584,46.688,82.524,46.7,82.459,46.7z"/>
			<path fill="#586B3C" d="M85.298,50.405c0,0.281,0.045,0.479,0.135,0.592c0.091,0.114,0.24,0.188,0.449,0.221
				c0.036,0.006,0.06,0.021,0.074,0.045c0.014,0.025,0.02,0.053,0.02,0.084s-0.008,0.059-0.023,0.084
				c-0.017,0.023-0.04,0.036-0.07,0.036c-0.027,0-0.075-0.003-0.145-0.009c-0.069-0.005-0.15-0.012-0.243-0.02
				s-0.188-0.016-0.289-0.025c-0.099-0.008-0.191-0.012-0.276-0.012c-0.18,0-0.352,0.01-0.512,0.029
				c-0.162,0.018-0.315,0.027-0.463,0.027c-0.027,0-0.048-0.012-0.061-0.035c-0.014-0.025-0.021-0.052-0.021-0.08
				c0-0.029,0.008-0.057,0.021-0.084c0.013-0.027,0.036-0.044,0.068-0.049c0.137-0.022,0.242-0.047,0.316-0.076
				c0.075-0.029,0.13-0.07,0.164-0.123c0.033-0.053,0.054-0.123,0.059-0.212c0.006-0.089,0.009-0.204,0.009-0.345v-1.055
				c0-0.277-0.001-0.506-0.004-0.688s-0.022-0.325-0.06-0.432c-0.036-0.105-0.094-0.182-0.172-0.227s-0.191-0.07-0.345-0.075
				c-0.032,0-0.056-0.013-0.069-0.041c-0.014-0.027-0.021-0.056-0.021-0.084s0.005-0.057,0.017-0.083
				c0.012-0.027,0.027-0.041,0.049-0.041c0.318-0.022,0.588-0.056,0.806-0.101c0.22-0.045,0.358-0.067,0.419-0.067
				c0.063,0,0.106,0.018,0.131,0.049c0.025,0.033,0.037,0.075,0.037,0.127c0,0.012-0.004,0.039-0.012,0.084
				s-0.018,0.096-0.029,0.155c-0.011,0.059-0.021,0.114-0.027,0.167c-0.01,0.053-0.013,0.094-0.013,0.121
				c0,0.01,0.003,0.016,0.013,0.016c0.007,0,0.015-0.006,0.02-0.016c0.039-0.068,0.097-0.145,0.176-0.23
				c0.078-0.086,0.173-0.169,0.283-0.248s0.238-0.146,0.383-0.199c0.146-0.055,0.302-0.082,0.468-0.082
				c0.397,0,0.708,0.115,0.93,0.347c0.223,0.231,0.335,0.606,0.335,1.124v1.43c0,0.149,0.005,0.271,0.016,0.367
				s0.034,0.172,0.069,0.23c0.036,0.059,0.088,0.104,0.155,0.135c0.068,0.031,0.161,0.056,0.277,0.072
				c0.027,0.005,0.048,0.02,0.062,0.045c0.014,0.023,0.021,0.052,0.021,0.083s-0.007,0.06-0.021,0.085
				c-0.014,0.023-0.034,0.035-0.062,0.035c-0.072,0-0.197-0.01-0.373-0.027c-0.176-0.02-0.347-0.029-0.513-0.029
				c-0.181,0-0.344,0.01-0.492,0.029c-0.149,0.018-0.274,0.027-0.378,0.027c-0.029,0-0.053-0.012-0.065-0.035
				c-0.014-0.025-0.021-0.052-0.024-0.08c-0.003-0.029,0.002-0.057,0.012-0.084c0.012-0.027,0.033-0.044,0.066-0.049
				c0.111-0.021,0.197-0.05,0.258-0.084c0.063-0.034,0.109-0.079,0.141-0.135s0.049-0.126,0.055-0.212
				c0.005-0.085,0.008-0.193,0.008-0.325v-1.268c0-0.139-0.004-0.277-0.012-0.417c-0.009-0.139-0.037-0.263-0.083-0.374
				c-0.048-0.112-0.118-0.205-0.209-0.278s-0.221-0.11-0.388-0.11c-0.336,0-0.592,0.107-0.773,0.322
				c-0.181,0.215-0.271,0.523-0.271,0.926V50.405z"/>
			<path fill="#586B3C" d="M92.128,48.17c0.079,0.117,0.136,0.241,0.172,0.373c0.035,0.133,0.056,0.265,0.061,0.398
				c0,0.245-0.045,0.461-0.137,0.646c-0.091,0.188-0.216,0.345-0.375,0.473c-0.16,0.128-0.343,0.225-0.548,0.292
				s-0.426,0.101-0.66,0.101c-0.067,0-0.155,0.003-0.261,0.01c-0.106,0.007-0.209,0.022-0.311,0.047
				c-0.102,0.025-0.186,0.061-0.256,0.108c-0.069,0.048-0.104,0.113-0.104,0.198c0,0.064,0.031,0.119,0.092,0.162
				c0.061,0.041,0.146,0.076,0.255,0.104c0.108,0.027,0.235,0.049,0.378,0.063c0.144,0.016,0.298,0.029,0.463,0.039
				c0.287,0.018,0.559,0.047,0.813,0.092c0.257,0.045,0.48,0.117,0.672,0.217c0.192,0.1,0.345,0.234,0.456,0.404
				s0.168,0.391,0.168,0.66c0,0.197-0.048,0.389-0.142,0.57c-0.094,0.18-0.234,0.34-0.423,0.477
				c-0.188,0.139-0.418,0.248-0.69,0.328s-0.583,0.12-0.935,0.12c-0.314,0-0.597-0.025-0.85-0.075
				c-0.254-0.051-0.472-0.127-0.655-0.231c-0.182-0.104-0.322-0.235-0.421-0.396c-0.1-0.161-0.15-0.353-0.15-0.576
				c0-0.128,0.022-0.246,0.066-0.354c0.043-0.109,0.101-0.207,0.171-0.295c0.071-0.086,0.151-0.161,0.243-0.223
				c0.091-0.061,0.185-0.107,0.279-0.141c-0.067-0.021-0.135-0.051-0.203-0.088c-0.065-0.037-0.125-0.081-0.178-0.135
				c-0.055-0.053-0.098-0.115-0.133-0.188c-0.036-0.072-0.053-0.159-0.053-0.26c0-0.15,0.028-0.273,0.087-0.371
				s0.136-0.178,0.232-0.238c0.097-0.063,0.206-0.105,0.327-0.135c0.121-0.026,0.24-0.043,0.357-0.049
				c0.006,0,0.008-0.003,0.008-0.01c0-0.006-0.002-0.01-0.008-0.01c-0.286-0.109-0.51-0.263-0.672-0.461
				c-0.162-0.199-0.243-0.467-0.243-0.801c0-0.23,0.042-0.438,0.126-0.623c0.085-0.188,0.203-0.346,0.355-0.477
				c0.153-0.131,0.338-0.232,0.556-0.305c0.219-0.072,0.458-0.107,0.719-0.107c0.298,0,0.534,0.041,0.71,0.124
				c0.175,0.083,0.335,0.191,0.479,0.325c0.106-0.106,0.232-0.195,0.378-0.268s0.307-0.107,0.484-0.107
				c0.063,0,0.131,0.004,0.205,0.016c0.076,0.011,0.145,0.031,0.209,0.063s0.117,0.072,0.159,0.123
				c0.042,0.05,0.063,0.116,0.063,0.198c0,0.095-0.025,0.181-0.075,0.255c-0.051,0.075-0.148,0.113-0.293,0.113
				c-0.106,0-0.175-0.022-0.21-0.066c-0.033-0.043-0.059-0.09-0.075-0.141s-0.036-0.098-0.058-0.143s-0.075-0.068-0.159-0.068
				c-0.09,0-0.18,0.023-0.27,0.068C92.237,48.042,92.171,48.099,92.128,48.17z M89.86,51.842c-0.096,0.068-0.17,0.17-0.227,0.307
				c-0.056,0.136-0.084,0.268-0.084,0.396c0,0.189,0.043,0.355,0.127,0.496c0.084,0.14,0.193,0.256,0.326,0.351
				c0.135,0.094,0.282,0.165,0.444,0.212c0.162,0.049,0.323,0.072,0.484,0.072c0.196,0,0.377-0.025,0.544-0.076
				c0.168-0.05,0.312-0.117,0.432-0.203s0.213-0.189,0.279-0.309c0.066-0.12,0.102-0.248,0.102-0.385
				c0-0.171-0.063-0.312-0.189-0.42c-0.125-0.109-0.297-0.193-0.514-0.256c-0.218-0.061-0.475-0.104-0.77-0.129
				C90.519,51.875,90.2,51.856,89.86,51.842z M90.665,50.147c0.289,0,0.496-0.096,0.621-0.286c0.126-0.19,0.188-0.468,0.188-0.829
				c0-0.183-0.011-0.35-0.029-0.5c-0.019-0.151-0.056-0.281-0.112-0.391c-0.056-0.108-0.129-0.193-0.222-0.252
				c-0.093-0.058-0.212-0.087-0.356-0.087c-0.177,0-0.319,0.038-0.428,0.114c-0.109,0.076-0.195,0.173-0.256,0.29
				c-0.062,0.117-0.104,0.248-0.127,0.392c-0.023,0.145-0.034,0.287-0.034,0.426c0,0.367,0.064,0.646,0.194,0.837
				C90.233,50.051,90.421,50.147,90.665,50.147z"/>
		</g>
		<g>
			<g>
				<path d="M35.93,40.465c-0.086-0.168-0.223-0.269-0.41-0.299c-0.365-0.079-0.704-0.157-1.037-0.235
					c-0.012,0.151-0.044,0.293-0.106,0.415c-0.078,0.152-0.202,0.23-0.373,0.23c-0.499,0-0.992-0.016-1.481-0.047
					s-0.978-0.078-1.459-0.141c-0.467-0.062-0.964-0.107-1.493-0.14c-0.529-0.03-1.09-0.046-1.68-0.046
					c-1.353,0-2.613,0.063-3.78,0.186c-0.828,0.088-1.628,0.135-2.417,0.16c-0.048,0.107-0.08,0.223-0.08,0.354
					c0,0.229,0.058,0.428,0.175,0.598c0.115,0.168,0.283,0.252,0.501,0.252c1.089,0,2.216-0.063,3.383-0.186
					c1.167-0.125,2.427-0.188,3.78-0.188c0.592,0,1.151,0.016,1.68,0.047c0.529,0.031,1.027,0.078,1.493,0.141
					c0.483,0.061,0.97,0.107,1.459,0.139c0.49,0.031,0.983,0.047,1.481,0.047c0.171,0,0.296-0.076,0.374-0.23
					c0.077-0.152,0.116-0.328,0.116-0.527C36.057,40.81,36.015,40.633,35.93,40.465z"/>
				<path d="M20.996,13.878c0.909,2.328,1.84,4.693,2.789,7.098c0.949,2.405,1.901,4.795,2.857,7.168
					c0.956,2.374,1.871,4.621,2.742,6.736c0.374,0.92,0.739,1.632,1.096,2.138c0.358,0.506,0.723,0.891,1.096,1.156
					c0.25,0.176,0.504,0.3,0.758,0.399c-0.097-0.118-0.194-0.244-0.291-0.379c-0.357-0.506-0.723-1.219-1.096-2.137
					c-0.871-2.118-1.785-4.363-2.742-6.736c-0.957-2.374-1.909-4.763-2.857-7.168c-0.949-2.405-1.879-4.771-2.789-7.098
					c-0.91-2.327-1.76-4.51-2.554-6.549c-0.265-0.265-0.615-0.397-1.05-0.397c-0.075,0-0.139,0.009-0.204,0.018
					C19.456,9.936,20.203,11.849,20.996,13.878z"/>
				<path d="M12.819,30.204h8.422c0.18,0,0.338,0.005,0.49,0.016c-0.032-0.08-0.061-0.152-0.094-0.233
					c-0.156-0.422-0.37-0.687-0.642-0.796c-0.273-0.109-0.712-0.164-1.318-0.164h-8.423c-0.435,0-0.751,0.07-0.945,0.211
					c-0.196,0.141-0.37,0.39-0.525,0.749l-2.147,5.635c-0.17,0.516-0.256,0.881-0.256,1.1c0,0.405,0.104,0.749,0.314,1.029
					c0.21,0.279,0.491,0.508,0.839,0.678c0.183,0.09,0.38,0.166,0.59,0.232c-0.108-0.227-0.18-0.473-0.18-0.764
					c0-0.218,0.084-0.584,0.256-1.1l2.146-5.635c0.156-0.358,0.33-0.607,0.524-0.748C12.067,30.273,12.383,30.204,12.819,30.204z"/>
				<path d="M11.068,26.962c0.125,0.132,0.366,0.199,0.724,0.199h0.953l4.104-10.51l-0.625-1.669
					c-0.062-0.171-0.187-0.257-0.373-0.257c-0.063,0-0.105,0.023-0.154,0.042l-4.702,11.839
					C10.977,26.766,10.999,26.888,11.068,26.962z"/>
				<path d="M12.678,40.167c-0.328-0.021-0.647-0.074-0.965-0.123c-0.023,0.098-0.058,0.191-0.107,0.279
					c-0.093,0.168-0.257,0.254-0.491,0.254c-0.373,0-0.785-0.021-1.236-0.06c-0.451-0.038-0.915-0.081-1.389-0.128
					c-0.474-0.047-0.951-0.09-1.434-0.127c-0.481-0.039-0.941-0.059-1.375-0.059c-0.826,0-1.623,0.063-2.393,0.186
					c-0.461,0.075-0.949,0.119-1.453,0.15c-0.045,0.105-0.075,0.217-0.075,0.34c0,0.214,0.054,0.414,0.164,0.597
					c0.109,0.185,0.257,0.276,0.443,0.276c0.886,0,1.715-0.063,2.484-0.186c0.77-0.125,1.568-0.188,2.393-0.188
					c0.436,0,0.894,0.02,1.376,0.059c0.481,0.038,0.96,0.082,1.434,0.129c0.474,0.045,0.937,0.089,1.389,0.127
					c0.451,0.039,0.863,0.059,1.235,0.059c0.234,0,0.397-0.084,0.491-0.252c0.093-0.17,0.139-0.354,0.139-0.553
					c0-0.184-0.046-0.359-0.139-0.528C13.075,40.25,12.912,40.167,12.678,40.167z"/>
			</g>
			<g>
				<g>
					<path fill="#5C1F1E" d="M11.341,28.991c-0.436,0-0.751,0.07-0.946,0.211c-0.195,0.141-0.371,0.389-0.524,0.748l-2.146,5.637
						c-0.172,0.515-0.257,0.881-0.257,1.099c0,0.405,0.104,0.749,0.314,1.028c0.21,0.281,0.49,0.508,0.84,0.68
						c0.35,0.172,0.75,0.3,1.202,0.386c0.452,0.085,0.911,0.144,1.378,0.175c0.233,0,0.396,0.086,0.489,0.254
						c0.093,0.168,0.141,0.344,0.141,0.527c0,0.2-0.047,0.384-0.141,0.553c-0.093,0.168-0.256,0.252-0.489,0.252
						c-0.375,0-0.786-0.02-1.238-0.058s-0.914-0.081-1.388-0.128c-0.475-0.047-0.953-0.09-1.434-0.129
						c-0.482-0.038-0.942-0.059-1.377-0.059c-0.825,0-1.622,0.063-2.392,0.188c-0.77,0.125-1.597,0.186-2.484,0.186
						c-0.187,0-0.335-0.092-0.442-0.275c-0.109-0.184-0.165-0.383-0.165-0.598c0-0.168,0.042-0.322,0.127-0.459
						c0.086-0.139,0.23-0.223,0.433-0.254l0.724-0.094c0.48-0.107,0.912-0.24,1.294-0.396c0.381-0.155,0.744-0.385,1.085-0.688
						s0.669-0.716,0.979-1.237c0.312-0.521,0.639-1.203,0.98-2.043L16.707,7.293c0.094-0.265,0.35-0.397,0.77-0.397
						c0.435,0,0.784,0.132,1.05,0.397c0.793,2.039,1.644,4.222,2.554,6.55c0.91,2.327,1.84,4.692,2.789,7.097
						c0.948,2.405,1.901,4.794,2.857,7.168c0.956,2.375,1.871,4.619,2.742,6.736c0.374,0.919,0.739,1.631,1.097,2.137
						s0.723,0.891,1.097,1.156c0.374,0.265,0.755,0.443,1.143,0.537c0.389,0.094,0.801,0.186,1.237,0.279
						c0.187,0.031,0.322,0.131,0.407,0.299c0.085,0.169,0.129,0.346,0.129,0.529c0,0.199-0.039,0.377-0.117,0.529
						c-0.077,0.152-0.202,0.229-0.373,0.229c-0.498,0-0.993-0.015-1.482-0.046c-0.49-0.031-0.976-0.078-1.458-0.14
						c-0.467-0.063-0.965-0.108-1.494-0.141c-0.528-0.031-1.088-0.047-1.679-0.047c-1.354,0-2.613,0.063-3.779,0.188
						c-1.168,0.125-2.296,0.186-3.383,0.186c-0.22,0-0.386-0.084-0.503-0.252c-0.116-0.169-0.174-0.367-0.174-0.598
						c0-0.184,0.047-0.346,0.141-0.482c0.093-0.139,0.256-0.223,0.49-0.254c1.087-0.14,1.881-0.334,2.379-0.584
						c0.514-0.25,0.771-0.779,0.771-1.591c0-0.218-0.024-0.472-0.071-0.761c-0.046-0.288-0.147-0.682-0.303-1.18
						c-0.155-0.499-0.378-1.139-0.666-1.918c-0.287-0.779-0.673-1.77-1.154-2.971c-0.156-0.421-0.37-0.685-0.643-0.795
						c-0.272-0.109-0.711-0.164-1.318-0.164H11.341z M19.577,27.125c0.436,0,0.734-0.073,0.898-0.221
						c0.162-0.147,0.167-0.408,0.012-0.782l-4.177-11.176c-0.062-0.171-0.186-0.256-0.374-0.256c-0.186,0-0.312,0.085-0.374,0.256
						l-4.362,11.176c-0.156,0.405-0.172,0.673-0.047,0.805c0.124,0.132,0.364,0.198,0.722,0.198H19.577z"/>
				</g>
			</g>
		</g>
		<g>
			<g>
				<g>
					<path fill="#AA792F" d="M37.135,24.17c0-0.701-0.025-1.396-0.072-2.089c-0.048-0.692-0.159-1.333-0.334-1.922
						c-0.175-0.589-0.429-1.094-0.764-1.516c-0.333-0.422-0.796-0.713-1.384-0.873c-0.349-0.111-0.724-0.199-1.121-0.262
						c-0.398-0.063-0.772-0.111-1.122-0.144c-0.175,0-0.31-0.083-0.406-0.25c-0.095-0.167-0.143-0.354-0.143-0.561
						c0-0.191,0.043-0.362,0.131-0.514c0.088-0.151,0.228-0.226,0.418-0.226c0.556,0,1.077,0.008,1.563,0.023
						c0.485,0.016,0.951,0.04,1.396,0.072c0.445,0.032,0.927,0.056,1.444,0.071c0.517,0.016,1.069,0.024,1.658,0.024
						c0.478,0,1.018-0.008,1.623-0.024c0.605-0.016,1.221-0.036,1.85-0.06c0.628-0.024,1.249-0.047,1.861-0.071
						c0.611-0.024,1.165-0.036,1.659-0.036c0.844,0,1.727,0.043,2.648,0.131c0.923,0.087,1.826,0.243,2.709,0.465
						c0.883,0.223,1.727,0.525,2.529,0.907c0.803,0.381,1.504,0.868,2.1,1.456c0.598,0.588,1.075,1.289,1.433,2.1
						c0.357,0.811,0.537,1.758,0.537,2.84c0,1.018-0.159,1.909-0.478,2.672c-0.318,0.764-0.748,1.432-1.289,2.005
						c-0.54,0.572-1.168,1.062-1.885,1.467c-0.717,0.406-1.464,0.751-2.243,1.039c-0.175,0.08-0.263,0.183-0.263,0.31
						c0,0.128,0.088,0.207,0.263,0.239c2.561,0.701,4.558,1.742,5.989,3.126c1.416,1.369,2.125,3.309,2.125,5.822
						c0,1.703-0.307,3.103-0.92,4.2c-0.611,1.099-1.419,1.969-2.422,2.614c-1.002,0.643-2.147,1.094-3.436,1.348
						c-1.289,0.254-2.617,0.382-3.985,0.382c-0.62,0-1.313-0.013-2.077-0.036c-0.763-0.023-1.555-0.052-2.374-0.084
						c-0.82-0.031-1.644-0.059-2.47-0.082c-0.828-0.025-1.599-0.037-2.315-0.037c-0.7,0-1.321,0.008-1.862,0.023
						c-0.54,0.018-1.065,0.041-1.575,0.072c-0.509,0.032-1.035,0.072-1.576,0.119c-0.54,0.049-1.154,0.104-1.837,0.167
						c-0.19,0.032-0.338-0.042-0.441-0.223c-0.104-0.181-0.156-0.382-0.156-0.601c0-0.188,0.044-0.363,0.131-0.529
						c0.088-0.164,0.228-0.254,0.418-0.271c0.795-0.095,1.476-0.226,2.041-0.394c0.564-0.166,1.025-0.418,1.384-0.752
						c0.358-0.335,0.621-0.773,0.787-1.314c0.167-0.541,0.251-1.226,0.251-2.054V24.17z M42.457,29.344
						c0,0.43,0.071,0.749,0.214,0.955c0.143,0.207,0.462,0.31,0.955,0.31h0.931c1.065,0,2.048-0.091,2.948-0.274
						c0.896-0.183,1.673-0.513,2.325-0.99c0.652-0.478,1.165-1.137,1.54-1.981c0.373-0.843,0.561-1.924,0.561-3.246
						c0-1.129-0.143-2.087-0.43-2.875c-0.286-0.788-0.704-1.433-1.253-1.934c-0.548-0.501-1.233-0.867-2.053-1.098
						c-0.82-0.23-1.754-0.346-2.804-0.346h-1.67c-0.319,0-0.561,0.04-0.728,0.12c-0.168,0.08-0.292,0.211-0.371,0.394
						c-0.08,0.183-0.127,0.418-0.143,0.704c-0.016,0.287-0.024,0.629-0.024,1.027V29.344z M42.457,39.176
						c0,1.766,0.056,3.154,0.167,4.164c0.11,1.01,0.338,1.774,0.68,2.291c0.342,0.518,0.838,0.84,1.491,0.967
						c0.652,0.127,1.52,0.191,2.602,0.191c2.275,0,3.866-0.534,4.772-1.6c0.922-1.065,1.385-2.697,1.385-4.893
						c0-1.574-0.227-2.855-0.681-3.842c-0.453-0.986-1.067-1.762-1.837-2.326c-0.772-0.564-1.68-0.951-2.722-1.158
						c-1.042-0.205-2.15-0.31-3.328-0.31h-0.932c-0.684,0-1.121,0.119-1.313,0.358c-0.191,0.223-0.286,0.756-0.286,1.598V39.176z"/>
				</g>
			</g>
			<g>
				<path d="M32.637,18.136c0,0.206,0.048,0.393,0.143,0.561c0.095,0.167,0.23,0.25,0.406,0.25c0.35,0.032,0.724,0.08,1.121,0.144
					c0.397,0.064,0.772,0.151,1.122,0.262c0.567,0.154,1.016,0.434,1.347,0.833c-0.005-0.016-0.007-0.034-0.011-0.05
					c-0.177-0.589-0.429-1.094-0.764-1.516c-0.334-0.421-0.797-0.712-1.384-0.872c-0.351-0.111-0.725-0.199-1.122-0.263
					c-0.159-0.025-0.298-0.037-0.45-0.058c-0.116,0.031-0.215,0.086-0.278,0.195C32.681,17.774,32.637,17.945,32.637,18.136z"/>
				<path d="M50.284,19.287c-0.55-0.501-1.233-0.867-2.053-1.097c-0.819-0.23-1.754-0.346-2.804-0.346h-1.671
					c-0.319,0-0.561,0.04-0.728,0.12c-0.167,0.08-0.29,0.21-0.37,0.393c-0.08,0.184-0.127,0.418-0.142,0.704
					c-0.017,0.287-0.024,0.629-0.024,1.026v9.236c0,0.429,0.071,0.748,0.215,0.955c0.105,0.151,0.306,0.246,0.597,0.287v-8.872
					c0-0.397,0.008-0.74,0.024-1.026c0.016-0.287,0.063-0.521,0.144-0.704c0.079-0.183,0.203-0.314,0.37-0.394
					c0.167-0.08,0.409-0.119,0.728-0.119h1.67c1.05,0,1.984,0.115,2.804,0.345c0.818,0.23,1.503,0.597,2.052,1.098
					c0.189,0.173,0.357,0.37,0.517,0.577c-0.026-0.082-0.047-0.17-0.076-0.248C51.25,20.433,50.833,19.789,50.284,19.287z"/>
				<path d="M57.384,23.69c0,1.018-0.16,1.909-0.478,2.672c-0.319,0.764-0.749,1.433-1.288,2.005
					c-0.541,0.572-1.17,1.062-1.886,1.467c-0.716,0.406-1.465,0.752-2.243,1.039c-0.176,0.08-0.264,0.183-0.264,0.31
					c0,0.128,0.088,0.207,0.264,0.239c0.664,0.181,1.288,0.388,1.877,0.615c0.401-0.183,0.795-0.38,1.178-0.597
					c0.716-0.406,1.344-0.895,1.886-1.468c0.54-0.573,0.97-1.241,1.289-2.005c0.317-0.764,0.478-1.654,0.478-2.673
					c0-1.082-0.18-2.028-0.537-2.84c-0.184-0.416-0.4-0.8-0.647-1.157C57.255,22.005,57.384,22.799,57.384,23.69z"/>
				<path d="M59.101,37.122c0.332,0.949,0.502,2.031,0.502,3.25c0,1.703-0.307,3.102-0.918,4.199
					c-0.613,1.098-1.422,1.97-2.424,2.613c-1.001,0.645-2.146,1.095-3.436,1.349c-1.289,0.255-2.617,0.382-3.984,0.382
					c-0.621,0-1.313-0.012-2.077-0.035c-0.764-0.023-1.556-0.052-2.375-0.084c-0.818-0.031-1.643-0.059-2.47-0.084
					c-0.827-0.023-1.598-0.035-2.314-0.035c-0.7,0-1.321,0.008-1.861,0.023c-0.541,0.016-1.066,0.04-1.575,0.071
					c-0.51,0.032-1.035,0.072-1.575,0.12c-0.077,0.006-0.166,0.016-0.245,0.021c-0.265,0.047-0.53,0.092-0.827,0.128
					c-0.192,0.015-0.331,0.104-0.418,0.271c-0.087,0.164-0.132,0.341-0.132,0.528c0,0.22,0.052,0.42,0.156,0.6
					c0.103,0.181,0.25,0.256,0.442,0.224c0.682-0.063,1.296-0.119,1.837-0.166c0.54-0.049,1.065-0.088,1.574-0.12
					c0.51-0.032,1.035-0.056,1.575-0.071c0.54-0.016,1.161-0.023,1.862-0.023c0.716,0,1.487,0.011,2.314,0.035
					c0.827,0.023,1.651,0.051,2.47,0.084c0.819,0.031,1.611,0.059,2.375,0.084c0.765,0.023,1.456,0.035,2.076,0.035
					c1.368,0,2.696-0.129,3.985-0.383c1.288-0.254,2.434-0.703,3.437-1.348c1.002-0.645,1.81-1.516,2.422-2.613
					s0.919-2.497,0.919-4.2C60.415,40.003,59.972,38.389,59.101,37.122z"/>
				<path d="M43.339,45.61c0.095,0.143,0.204,0.268,0.322,0.381c-0.079-0.322-0.146-0.67-0.189-1.066
					c-0.112-1.012-0.168-2.398-0.168-4.164v-4.559c0-0.844,0.096-1.377,0.287-1.6c0.192-0.238,0.628-0.357,1.313-0.357h0.93
					c1.178,0,2.287,0.104,3.33,0.31c1.041,0.207,1.949,0.594,2.721,1.157c0.477,0.35,0.887,0.789,1.242,1.3
					c-0.068-0.198-0.135-0.398-0.218-0.577c-0.454-0.986-1.065-1.762-1.837-2.328c-0.771-0.563-1.678-0.949-2.721-1.156
					c-1.042-0.207-2.152-0.311-3.329-0.311h-0.93c-0.685,0-1.122,0.119-1.313,0.357c-0.192,0.225-0.287,0.756-0.287,1.6v4.559
					c0,1.766,0.056,3.154,0.167,4.164S42.997,45.092,43.339,45.61z"/>
			</g>
		</g>
	</g>
	<g>
		<path d="M3.806,57.143c0.374,0.262,0.656,0.615,0.845,1.059c0.189,0.443,0.284,0.936,0.284,1.477c0,0.547-0.095,1.041-0.284,1.484
			c-0.189,0.443-0.471,0.795-0.845,1.055c-0.374,0.258-0.822,0.389-1.346,0.389H0.402c-0.112,0-0.207-0.039-0.286-0.117
			C0.039,62.411,0,62.315,0,62.204v-5.053c0-0.111,0.039-0.207,0.117-0.284C0.195,56.79,0.29,56.75,0.402,56.75H2.46
			C2.984,56.75,3.433,56.881,3.806,57.143z M3.656,61.23c0.285-0.405,0.427-0.921,0.427-1.552c0-0.625-0.144-1.142-0.431-1.548
			c-0.287-0.407-0.712-0.61-1.276-0.61H0.829v4.316h1.547C2.945,61.836,3.371,61.633,3.656,61.23z"/>
		<path d="M33.283,61.954c0.075,0.078,0.113,0.17,0.113,0.275c0,0.111-0.038,0.203-0.113,0.271c-0.076,0.07-0.171,0.105-0.29,0.105
			h-2.911c-0.111,0-0.207-0.039-0.284-0.117c-0.079-0.078-0.118-0.174-0.118-0.285v-5.053c0-0.111,0.039-0.207,0.118-0.284
			c0.078-0.077,0.173-0.116,0.284-0.116h2.911c0.118,0,0.214,0.036,0.29,0.107c0.075,0.073,0.113,0.168,0.113,0.285
			c0,0.111-0.038,0.203-0.113,0.271c-0.076,0.07-0.171,0.105-0.29,0.105h-2.485v1.706h2.109c0.117,0,0.213,0.036,0.288,0.108
			c0.076,0.073,0.113,0.165,0.113,0.277c0,0.116-0.038,0.207-0.113,0.275c-0.075,0.066-0.171,0.1-0.288,0.1h-2.109v1.85h2.485
			C33.112,61.836,33.208,61.875,33.283,61.954z"/>
		<path d="M63.503,56.864c0.078,0.074,0.117,0.168,0.117,0.279v5.061c0,0.111-0.037,0.207-0.113,0.285
			c-0.075,0.078-0.174,0.117-0.297,0.117c-0.122,0-0.223-0.037-0.301-0.113s-0.117-0.172-0.117-0.289v-3.873L61.17,60.79
			c-0.04,0.051-0.089,0.093-0.146,0.127c-0.06,0.033-0.118,0.047-0.18,0.041c-0.057,0.006-0.113-0.008-0.173-0.041
			c-0.059-0.034-0.107-0.076-0.146-0.127l-1.631-2.533v3.947c0,0.117-0.035,0.213-0.104,0.289s-0.163,0.113-0.28,0.113
			c-0.111,0-0.201-0.037-0.271-0.113s-0.105-0.172-0.105-0.289v-5.061c0-0.105,0.039-0.199,0.117-0.279
			c0.078-0.082,0.176-0.123,0.294-0.123c0.066,0,0.132,0.018,0.196,0.051s0.115,0.078,0.154,0.135l1.983,3.002l2.007-3.002
			c0.09-0.123,0.201-0.186,0.336-0.186C63.331,56.747,63.425,56.788,63.503,56.864z"/>
		<path d="M93.648,61.209c-0.242,0.456-0.579,0.818-1.007,1.082c-0.431,0.266-0.916,0.398-1.457,0.398s-1.026-0.133-1.456-0.398
			c-0.431-0.264-0.765-0.626-1.007-1.082c-0.244-0.458-0.365-0.969-0.365-1.531c0-0.563,0.121-1.074,0.365-1.531
			c0.242-0.457,0.576-0.818,1.007-1.084c0.43-0.264,0.915-0.396,1.456-0.396s1.026,0.133,1.457,0.396
			c0.428,0.266,0.765,0.627,1.007,1.084c0.243,0.457,0.363,0.968,0.363,1.531C94.012,60.241,93.892,60.751,93.648,61.209z
			 M92.899,58.544c-0.167-0.337-0.4-0.603-0.698-0.794c-0.299-0.193-0.638-0.289-1.017-0.289s-0.718,0.095-1.018,0.284
			c-0.297,0.189-0.53,0.452-0.697,0.79c-0.168,0.338-0.251,0.719-0.251,1.143c0,0.418,0.083,0.796,0.251,1.133
			c0.167,0.338,0.4,0.603,0.697,0.795c0.3,0.191,0.639,0.289,1.018,0.289s0.718-0.098,1.017-0.289
			c0.298-0.192,0.531-0.457,0.698-0.795c0.167-0.337,0.251-0.715,0.251-1.133S93.066,58.881,92.899,58.544z"/>
	</g>
</g>
</svg>
